<?xml version="1.0" standalone="no"?>
<!DOCTYPE svg PUBLIC "-//W3C//DTD SVG 1.1//EN" "http://www.w3.org/Graphics/SVG/1.1/DTD/svg11.dtd" >
<svg xmlns="http://www.w3.org/2000/svg" xmlns:xlink="http://www.w3.org/1999/xlink" version="1.1">
<metadata>
Created by FontForge 20170731 at Thu Apr 10 05:25:02 2008
 By Aleksey,,,
Copyright (c) 2008 by Prinya R. nont. All rights reserved.
</metadata>
<defs>
<font id="DBHelvethaicaX-Med" horiz-adv-x="0" >
  <font-face 
    font-family="DB Helvethaica X Med"
    font-weight="500"
    font-stretch="normal"
    units-per-em="4096"
    panose-1="2 0 5 6 9 0 0 2 0 4"
    ascent="3276"
    descent="-820"
    x-height="1454"
    cap-height="1999"
    bbox="-2167 -1339 3506 3277"
    underline-thickness="82"
    underline-position="-627"
    unicode-range="U+0020-F882"
  />
<missing-glyph horiz-adv-x="696" 
 />
    <glyph glyph-name="plusminus" unicode="&#x2b;&#x2d;" horiz-adv-x="1679" 
d="M1573 258v-258h-1467v258h1467zM713 1090v462h258v-462h602v-259h-602v-462h-258v462h-607v259h607z" />
    <glyph glyph-name="ellipsis" unicode="&#x2e;&#x2e;&#x2e;" horiz-adv-x="2777" 
d="M659 389v-393h-393v393h393zM2507 389v-393h-393v393h393zM1581 389v-393h-393v393h393z" />
    <glyph glyph-name="lessequal" unicode="&#x3c;&#x3d;" horiz-adv-x="1786" 
d="M1634 246v-246h-1482v246h1482zM500 1130l1134 -512v-262l-1482 664v225l1482 668v-266z" />
    <glyph glyph-name="greaterequal" unicode="&#x3e;&#x3d;" horiz-adv-x="1786" 
d="M1634 246v-246h-1482v246h1482zM152 1647v266l1482 -668v-225l-1482 -664v262l1134 512z" />
    <glyph glyph-name="fongmanfunnuthai" unicode="&#xe4f;&#x22;" horiz-adv-x="2077" 
d="M1126 2417h275l-29 -459h-213zM680 2417h270l-32 -459h-209zM147 836q0 122 32 234.5t89.5 210t139 178t180 137.5t212 88.5t236.5 31.5q121 0 233 -31.5t209.5 -88.5t177.5 -137.5t137 -178t88.5 -210t31.5 -234.5t-31.5 -234.5t-88.5 -210.5t-137 -178.5t-177.5 -137.5
t-209.5 -88.5t-233 -31.5q-123 0 -236.5 31.5t-212 88.5t-180 137.5t-139 178.5t-89.5 210.5t-32 234.5zM565 844q0 94 37.5 178t101.5 147.5t149.5 100.5t182.5 37q94 0 177.5 -37t146 -100.5t99 -147.5t36.5 -178q0 -97 -36.5 -182t-99 -148.5t-146 -100t-177.5 -36.5
q-97 0 -182.5 36.5t-149.5 100t-101.5 148.5t-37.5 182zM782 844q0 -54 19 -100.5t53 -80.5t80.5 -53.5t101.5 -19.5q51 0 95 19.5t76.5 53.5t51.5 80.5t19 100.5q0 51 -19 95.5t-51.5 78t-76.5 53t-95 19.5q-55 0 -101.5 -19.5t-80.5 -53t-53 -78t-19 -95.5zM393 844
q0 -132 50 -249t136.5 -204.5t204 -138.5t252.5 -51q87 0 168 23t151.5 65.5t128.5 101t99.5 130t64.5 153.5t23 170t-23 169.5t-64.5 152t-99.5 128t-128.5 99t-151.5 64t-168 22.5q-135 0 -252.5 -49.5t-204 -136t-136.5 -202t-50 -247.5z" />
    <glyph glyph-name="dochadaphinthuthai" unicode="&#xe0e;&#xe3a;" horiz-adv-x="1839" 
d="M1282 -918q0 48 18 89.5t49 73t72.5 49.5t89.5 18q46 0 87 -18t72 -49.5t49 -73t18 -89.5q0 -46 -18 -87t-49 -71.5t-72 -48.5t-87 -18q-48 0 -89.5 18t-72.5 48.5t-49 71.5t-18 87zM90 0v274h164v635q0 34 -5.5 69t-21 68.5t-42.5 63.5t-70 53q15 68 45 135t76 128.5
t109.5 114.5t146.5 92t185.5 61t227.5 22q148 0 263.5 -27t202 -75.5t146 -114.5t96.5 -144.5t53.5 -165.5t16.5 -177v-1590h-327q-23 37 -56 71t-81 60.5t-114 42t-155 15.5q-144 0 -259.5 -62t-219.5 -176v324q38 40 89 74t112 59.5t131 40t147 14.5q72 0 133 -10
t110 -25.5t86.5 -33.5t63.5 -33v1257q0 71 -22 140t-73 124t-135 89.5t-208 36.5q-103 1 -180 -22.5t-130.5 -59.5t-84 -77t-39.5 -75q53 -46 86 -123.5t33 -167.5v-905h-500z" />
    <glyph glyph-name="topatakphintuthai" unicode="&#xe0f;&#xe3a;" horiz-adv-x="1839" 
d="M1282 -918q0 48 18 89.5t49 73t72.5 49.5t89.5 18q46 0 87 -18t72 -49.5t49 -73t18 -89.5q0 -46 -18 -87t-49 -71.5t-72 -48.5t-87 -18q-48 0 -89.5 18t-72.5 48.5t-49 71.5t-18 87zM1683 -578h-335q-6 29 -19.5 63.5t-35.5 64t-53 49.5t-73 20q-41 0 -72 -19.5
t-51 -48.5t-30 -63.5t-10 -65.5h-283q0 22 -6.5 56t-23.5 66t-46.5 55.5t-75.5 23.5q-37 0 -62.5 -18.5t-41.5 -48t-23.5 -65t-7.5 -69.5h-270q0 120 34 206.5t89 143t122.5 83t135.5 26.5q99 0 176 -40.5t127 -114.5q28 35 62 62t71 45t74 27t71 9q75 0 127.5 -22t89.5 -56
v1249q0 71 -22 140t-73 124t-135 89.5t-208 36.5q-103 1 -180 -22.5t-130.5 -59.5t-84 -77t-39.5 -75q53 -46 86 -123.5t33 -167.5v-905h-500v274h164v635q0 34 -5.5 69t-21 68.5t-42.5 63.5t-70 53q15 68 45 135t76 128.5t109.5 114.5t146.5 92t185.5 61t227.5 22
q148 0 263.5 -27t202 -75.5t146 -114.5t96.5 -144.5t53.5 -165.5t16.5 -177v-1590z" />
    <glyph glyph-name="dochadasarauthai" unicode="&#xe0e;&#xe38;" horiz-adv-x="1839" 
d="M1368 -1311v369h-147v258h462v-627h-315zM90 0v274h164v635q0 34 -5.5 69t-21 68.5t-42.5 63.5t-70 53q15 68 45 135t76 128.5t109.5 114.5t146.5 92t185.5 61t227.5 22q148 0 263.5 -27t202 -75.5t146 -114.5t96.5 -144.5t53.5 -165.5t16.5 -177v-1590h-327
q-23 37 -56 71t-81 60.5t-114 42t-155 15.5q-144 0 -259.5 -62t-219.5 -176v324q38 40 89 74t112 59.5t131 40t147 14.5q72 0 133 -10t110 -25.5t86.5 -33.5t63.5 -33v1257q0 71 -22 140t-73 124t-135 89.5t-208 36.5q-103 1 -180 -22.5t-130.5 -59.5t-84 -77t-39.5 -75
q53 -46 86 -123.5t33 -167.5v-905h-500z" />
    <glyph glyph-name="topataksarauthai" unicode="&#xe0f;&#xe38;" horiz-adv-x="1839" 
d="M1368 -1311v369h-147v258h462v-627h-315zM1683 -578h-335q-6 29 -19.5 63.5t-35.5 64t-53 49.5t-73 20q-41 0 -72 -19.5t-51 -48.5t-30 -63.5t-10 -65.5h-283q0 22 -6.5 56t-23.5 66t-46.5 55.5t-75.5 23.5q-37 0 -62.5 -18.5t-41.5 -48t-23.5 -65t-7.5 -69.5h-270
q0 120 34 206.5t89 143t122.5 83t135.5 26.5q99 0 176 -40.5t127 -114.5q28 35 62 62t71 45t74 27t71 9q75 0 127.5 -22t89.5 -56v1249q0 71 -22 140t-73 124t-135 89.5t-208 36.5q-103 1 -180 -22.5t-130.5 -59.5t-84 -77t-39.5 -75q53 -46 86 -123.5t33 -167.5v-905h-500
v274h164v635q0 34 -5.5 69t-21 68.5t-42.5 63.5t-70 53q15 68 45 135t76 128.5t109.5 114.5t146.5 92t185.5 61t227.5 22q148 0 263.5 -27t202 -75.5t146 -114.5t96.5 -144.5t53.5 -165.5t16.5 -177v-1590z" />
    <glyph glyph-name="dochadasarauuthai" unicode="&#xe0e;&#xe39;" horiz-adv-x="1839" 
d="M623 -684h467v-229q0 -81 34 -122.5t105 -41.5q68 0 103.5 41.5t35.5 122.5v229h315v-229q0 -88 -23.5 -165.5t-77.5 -135.5t-140.5 -91.5t-212.5 -33.5q-119 0 -203.5 28.5t-140 80.5t-83.5 125.5t-32 162.5h-147v258zM90 0v274h164v635q0 34 -5.5 69t-21 68.5
t-42.5 63.5t-70 53q15 68 45 135t76 128.5t109.5 114.5t146.5 92t185.5 61t227.5 22q148 0 263.5 -27t202 -75.5t146 -114.5t96.5 -144.5t53.5 -165.5t16.5 -177v-1590h-327q-23 37 -56 71t-81 60.5t-114 42t-155 15.5q-144 0 -259.5 -62t-219.5 -176v324q38 40 89 74
t112 59.5t131 40t147 14.5q72 0 133 -10t110 -25.5t86.5 -33.5t63.5 -33v1257q0 71 -22 140t-73 124t-135 89.5t-208 36.5q-103 1 -180 -22.5t-130.5 -59.5t-84 -77t-39.5 -75q53 -46 86 -123.5t33 -167.5v-905h-500z" />
    <glyph glyph-name="topataksarauuthai" unicode="&#xe0f;&#xe39;" horiz-adv-x="1839" 
d="M623 -684h467v-229q0 -81 34 -122.5t105 -41.5q68 0 103.5 41.5t35.5 122.5v229h315v-229q0 -88 -23.5 -165.5t-77.5 -135.5t-140.5 -91.5t-212.5 -33.5q-119 0 -203.5 28.5t-140 80.5t-83.5 125.5t-32 162.5h-147v258zM1683 -578h-335q-6 29 -19.5 63.5t-35.5 64
t-53 49.5t-73 20q-41 0 -72 -19.5t-51 -48.5t-30 -63.5t-10 -65.5h-283q0 22 -6.5 56t-23.5 66t-46.5 55.5t-75.5 23.5q-37 0 -62.5 -18.5t-41.5 -48t-23.5 -65t-7.5 -69.5h-270q0 120 34 206.5t89 143t122.5 83t135.5 26.5q99 0 176 -40.5t127 -114.5q28 35 62 62t71 45
t74 27t71 9q75 0 127.5 -22t89.5 -56v1249q0 71 -22 140t-73 124t-135 89.5t-208 36.5q-103 1 -180 -22.5t-130.5 -59.5t-84 -77t-39.5 -75q53 -46 86 -123.5t33 -167.5v-905h-500v274h164v635q0 34 -5.5 69t-21 68.5t-42.5 63.5t-70 53q15 68 45 135t76 128.5t109.5 114.5
t146.5 92t185.5 61t227.5 22q148 0 263.5 -27t202 -75.5t146 -114.5t96.5 -144.5t53.5 -165.5t16.5 -177v-1590z" />
    <glyph glyph-name=".notdef" horiz-adv-x="696" 
 />
    <glyph glyph-name=".null" 
 />
    <glyph glyph-name="nonmarkingreturn" horiz-adv-x="791" 
 />
    <glyph glyph-name="space" unicode=" " horiz-adv-x="696" 
 />
    <glyph glyph-name="exclam" unicode="!" horiz-adv-x="1036" 
d="M717 381v-381h-398v381h398zM627 549h-213l-74 823v627h360v-627z" />
    <glyph glyph-name="quotedbl" unicode="&#x22;" horiz-adv-x="1225" 
d="M942 1999v-729h-237v729h237zM524 1999v-729h-237v729h237z" />
    <glyph glyph-name="numbersign" unicode="#" horiz-adv-x="1642" 
d="M680 831h262l45 336h-258zM102 561v270h304l45 336h-275v267h311l82 565h271l-82 -565h266l78 565h274l-78 -565h242v-267h-274l-49 -336h241v-270h-282l-78 -561h-279l82 561h-258l-82 -561h-274l78 561h-263z" />
    <glyph glyph-name="dollar" unicode="$" horiz-adv-x="1618" 
d="M401 672q4 -171 84 -274.5t220 -131.5v619q-138 38 -246 83t-181.5 108.5t-112 151t-38.5 210.5q0 126 45.5 231t123.5 183.5t183.5 127t225.5 60.5v192h241v-192q224 -37 360.5 -193.5t192.5 -421.5h-328q-27 121 -81 196.5t-144 102.5v-569q69 -13 140 -37t138 -59
t126 -82.5t103 -107.5t69.5 -134t25.5 -162q0 -129 -44.5 -237t-124.5 -188t-190.5 -129t-242.5 -60v-233h-241v237q-140 18 -251.5 73t-192.5 144.5t-129.5 213t-61.5 278.5h331zM946 254q57 9 105 32.5t83 60.5t54.5 88.5t19.5 117.5q0 57 -20 99.5t-55.5 74t-83.5 53.5
t-103 39v-565zM471 1466q0 -58 15 -97t45 -66t73.5 -45t100.5 -33v512q-51 -11 -94 -33.5t-74 -56t-48.5 -79t-17.5 -102.5z" />
    <glyph glyph-name="percent" unicode="%" horiz-adv-x="2818" 
d="M549 1430q0 -56 6.5 -118.5t26 -115.5t56.5 -88t99 -35q43 0 74.5 16t54 43t36.5 62.5t22 75.5t11 81t3 79q0 54 -5.5 116t-25.5 115.5t-59 89t-107 35.5q-60 0 -97.5 -35.5t-58.5 -89t-28.5 -115.5t-7.5 -116zM270 1425q0 77 10 150.5t33 138.5t59 119.5t88.5 94
t122 61.5t158.5 22q138 0 230.5 -46.5t148 -126t78.5 -185t23 -223.5q0 -75 -11.5 -147.5t-36.5 -137t-63 -119t-91.5 -94t-122.5 -62t-155 -22.5q-129 0 -218.5 44.5t-146 122.5t-81.5 183.5t-25 226.5zM1880 561q0 -52 6.5 -113.5t27 -114.5t58.5 -88.5t101 -35.5
t101.5 34t59.5 86t28 115t7 121q0 54 -6.5 116.5t-26 116t-57 89t-98.5 35.5q-43 0 -74.5 -16.5t-54 -44t-36.5 -64.5t-22 -77t-11 -81t-3 -78zM1597 557q0 117 24.5 223.5t81 188t149 130t229.5 48.5q136 0 227 -46.5t145 -126t76.5 -185.5t22.5 -224q0 -114 -26.5 -219
t-83 -185.5t-146 -128.5t-215.5 -48q-132 0 -224 45t-150 123t-84 182.5t-26 222.5zM2186 2040l-1230 -2080h-332l1237 2080h325z" />
    <glyph glyph-name="ampersand" unicode="&#x26;" horiz-adv-x="1831" 
d="M1319 213q-49 -62 -113.5 -108t-138 -76.5t-153.5 -46t-160 -15.5q-143 0 -247.5 30t-177.5 79t-118 110t-70.5 123t-34 118.5t-8.5 96.5q0 117 34 204.5t93.5 155.5t140.5 123t175 107q-39 48 -75 97.5t-64 103t-45 112.5t-17 125q0 86 31.5 164t93 137t151.5 94t207 35
q100 0 194 -27.5t166.5 -81t116 -133t43.5 -184.5q0 -86 -28.5 -161t-76.5 -138.5t-112 -115.5t-135 -92l287 -336q19 62 29 124.5t16 133.5h299q-9 -65 -17 -115t-16 -91.5t-17 -76.5t-20.5 -68.5t-26.5 -68.5t-34 -76l426 -475h-410zM1135 426q-106 118 -211 243.5
t-207 239.5q-60 -35 -113.5 -72.5t-94 -82.5t-64 -100t-23.5 -126q0 -66 29 -119t76.5 -90t108.5 -57t126 -20q118 0 211 48.5t162 135.5zM651 1544q0 -34 13.5 -69t36 -71t51 -73t59.5 -74q37 26 76 54.5t71 63t53 76t21 93.5q0 34 -13.5 64.5t-38.5 53.5t-60.5 36.5
t-79.5 13.5q-36 0 -70 -10t-60.5 -31t-42.5 -52.5t-16 -74.5z" />
    <glyph glyph-name="quotesingle" unicode="'" horiz-adv-x="811" 
d="M524 1999v-729h-237v729h237z" />
    <glyph glyph-name="parenleft" unicode="(" horiz-adv-x="803" 
d="M565 -545q-98 152 -179.5 306.5t-140 315t-90.5 329t-32 348.5q0 167 27.5 336t83 334t138 322.5t193.5 301.5h275q-102 -163 -173.5 -321.5t-116.5 -318t-66 -322t-21 -332.5q0 -171 21 -333.5t66 -322t116.5 -319t173.5 -324.5h-275z" />
    <glyph glyph-name="parenright" unicode=")" horiz-adv-x="803" 
d="M-37 -545q101 165 172.5 324.5t117 319t66.5 322t21 333.5q0 170 -21 332.5t-66.5 322t-117 318t-172.5 321.5h275q110 -144 193 -301.5t138.5 -322.5t83 -334t27.5 -336q0 -180 -32 -348.5t-90.5 -329t-140 -315t-179.5 -306.5h-275z" />
    <glyph glyph-name="asterisk" unicode="*" horiz-adv-x="1057" 
d="M918 1827l81 -205l-290 -102l176 -246l-180 -123l-173 250l-172 -250l-192 123l176 246l-287 102l74 205l287 -103v295h221v-295z" />
    <glyph glyph-name="plus" unicode="+" horiz-adv-x="1720" 
d="M1593 885v-267h-598v-602h-266v602h-602v267h602v606h266v-606h598z" />
    <glyph glyph-name="comma" unicode="," horiz-adv-x="811" 
d="M602 389v-323q0 -86 -22.5 -164t-69.5 -144t-120.5 -117t-176.5 -83v229q40 14 70 37.5t50 52t30 59.5t10 60h-164v393h393z" />
    <glyph glyph-name="hyphen" unicode="-" horiz-adv-x="1327" 
d="M1200 885v-267h-1073v267h1073z" />
    <glyph glyph-name="period" unicode="." horiz-adv-x="811" 
d="M602 389v-393h-393v393h393z" />
    <glyph glyph-name="slash" unicode="/" horiz-adv-x="1057" 
d="M1094 2048l-828 -2089h-303l819 2089h312z" />
    <glyph glyph-name="zero" unicode="0" horiz-adv-x="1585" 
d="M430 979q0 -67 2 -147t12.5 -160t32.5 -154.5t62 -132.5t101.5 -92.5t150.5 -34.5q90 0 152 34.5t102.5 92.5t62.5 132.5t32.5 154.5t12.5 159.5t2 147.5q0 66 -3 145.5t-15 159.5t-35 155t-63.5 133t-101 93t-146.5 35q-85 0 -145 -35t-100 -93t-63 -133t-35 -155
t-15 -159.5t-3 -145.5zM90 979q0 106 6.5 222.5t30 228.5t69.5 213t123.5 177.5t193 121.5t278.5 45q164 0 279.5 -45t194 -121.5t124 -177.5t69.5 -213t30.5 -228.5t6.5 -222.5q0 -84 -3.5 -172t-14.5 -175t-32 -170t-56.5 -157t-87 -136t-124 -107t-168 -70t-218.5 -25
q-122 0 -217 25t-167.5 70t-124 107t-86.5 136t-56 157t-32 170t-14.5 175t-3.5 172z" />
    <glyph glyph-name="one" unicode="1" horiz-adv-x="1585" 
d="M209 1581q108 6 199.5 20t163.5 52.5t121.5 109.5t72.5 191h287v-1954h-324v1376q-99 -46 -226 -64.5t-294 -21.5v291z" />
    <glyph glyph-name="two" unicode="2" horiz-adv-x="1585" 
d="M123 1217q-14 163 29 302t133 241t222 160t296 58q136 0 256.5 -39t209.5 -115t141 -186.5t52 -253.5q0 -138 -45 -243t-116.5 -186t-159.5 -142.5t-174 -112.5q-78 -48 -157.5 -97.5t-147.5 -101t-119 -104t-72 -106.5h975v-291h-1380q11 122 40 221t71.5 180t96 146.5
t113.5 120t125 100.5t131 88q123 80 212 141.5t146.5 120t85 122.5t27.5 149q0 69 -25 124.5t-69 94t-103 59.5t-126 21q-91 0 -157 -40.5t-108.5 -106.5t-61 -150.5t-13.5 -173.5h-328z" />
    <glyph glyph-name="three" unicode="3" horiz-adv-x="1585" 
d="M627 1151h110q64 0 123 17.5t103.5 51t71 83t26.5 114.5q0 66 -22.5 116.5t-63 85t-96 52t-121.5 17.5q-85 0 -143 -31.5t-93.5 -86.5t-51 -128t-15.5 -156h-336q4 154 46.5 281t122.5 218.5t197.5 142t272.5 50.5q138 0 255.5 -34.5t204 -105t135 -176.5t48.5 -249
q0 -121 -53 -210.5t-152 -158.5q74 -27 128 -72.5t89.5 -105.5t52.5 -134t17 -159q0 -95 -25.5 -177.5t-70.5 -151t-106.5 -121.5t-133.5 -90q-42 -22 -88 -35.5t-95.5 -21t-100 -10.5t-101.5 -3q-158 0 -285 43t-215.5 128.5t-136 212.5t-47.5 296h336q1 -91 23 -164.5
t65 -125t107.5 -79.5t152.5 -28q84 0 153.5 22.5t119 64t77 101.5t27.5 135q0 78 -27.5 137.5t-77 99t-117 59.5t-147.5 20h-32.5t-32 -0.5t-35.5 -1.5t-43 -2v270z" />
    <glyph glyph-name="four" unicode="4" horiz-adv-x="1585" 
d="M934 1401q-65 -86 -126.5 -170.5t-123 -169.5t-124.5 -171.5t-130 -176.5h504v688zM1524 713v-303h-267v-410h-323v410h-864v286l897 1258h290v-1241h267z" />
    <glyph glyph-name="five" unicode="5" horiz-adv-x="1585" 
d="M590 1667l-78 -401q68 43 145.5 58t157.5 15q143 0 267 -43t216 -129.5t144.5 -216t52.5 -303.5q0 -131 -45.5 -252t-137 -214.5t-229 -149.5t-321.5 -56q-135 0 -255.5 40.5t-211.5 119.5t-146 196.5t-59 270.5h328q7 -74 35 -136.5t74.5 -109t110.5 -72.5t144 -26
q77 0 144 25.5t117 76.5t79 128t29 180q0 84 -28 155t-79.5 122t-124 79.5t-161.5 28.5q-56 0 -102.5 -13.5t-88 -37.5t-79 -56t-74.5 -69l-283 8l197 1069h1061v-287h-799z" />
    <glyph glyph-name="six" unicode="6" horiz-adv-x="1585" 
d="M1122 1430q-15 138 -90.5 200t-204.5 62q-76 0 -134 -23t-101.5 -62.5t-73.5 -92.5t-50.5 -114t-32 -127t-17.5 -130q41 38 91.5 69t107 53t117 34t122.5 12q155 0 275.5 -51t203 -140.5t125.5 -210t43 -258.5q0 -76 -14.5 -156t-47.5 -156t-87 -143.5t-131.5 -118.5
t-181.5 -80.5t-238 -29.5q-157 0 -271 42t-194.5 113.5t-130.5 166.5t-77.5 201.5t-37.5 217t-10 214.5q0 137 15 269t50 250.5t92 218.5t141.5 172.5t199 113.5t264.5 41q130 0 236 -34.5t183.5 -104.5t125 -174.5t61.5 -243.5h-328zM815 1020q-87 0 -155 -30t-114.5 -82.5
t-70.5 -122.5t-24 -150q0 -81 24.5 -150.5t71.5 -119.5t114.5 -78.5t153.5 -28.5q84 0 149.5 29.5t110.5 80t68.5 118.5t23.5 145q0 80 -21.5 150.5t-65 123.5t-110 84t-155.5 31z" />
    <glyph glyph-name="seven" unicode="7" horiz-adv-x="1585" 
d="M1479 1704q-100 -95 -192.5 -216.5t-173 -260t-147.5 -291t-117 -310t-81 -316.5t-39 -310h-364q15 241 74 469.5t153 437.5t217.5 396.5t267.5 347.5h-962v303h1364v-250v0z" />
    <glyph glyph-name="eight" unicode="8" horiz-adv-x="1585" 
d="M492 1446q0 -65 25.5 -114t68.5 -82t99 -49.5t118 -16.5q60 0 111 18t88 51.5t58 82t21 110.5q0 61 -21 107.5t-59 77t-90.5 46t-115.5 15.5q-57 0 -111.5 -15t-97 -45t-68.5 -76.5t-26 -109.5zM156 1458q0 86 23.5 158.5t65 131.5t99.5 103.5t127.5 74.5t147 45.5
t159.5 15.5q114 0 205.5 -20.5t163 -57.5t123.5 -87t85.5 -108.5t49.5 -124t16 -131.5q0 -130 -52 -227t-161 -162q143 -71 219 -194.5t76 -284.5q0 -151 -56 -267t-151.5 -195t-222.5 -120t-270 -41q-151 0 -282 39t-227.5 117t-152 195t-55.5 272q0 157 70.5 280.5
t212.5 194.5q-49 32 -88.5 76t-67 95t-42.5 107.5t-15 114.5zM426 582q0 -78 28 -138.5t78 -102t119 -62.5t152 -21q80 0 145.5 23.5t112.5 66.5t72.5 103.5t25.5 134.5q0 66 -28.5 123.5t-78 100t-115 67t-138.5 24.5q-77 0 -145 -22.5t-118.5 -63.5t-80 -100.5
t-29.5 -132.5z" />
    <glyph glyph-name="nine" unicode="9" horiz-adv-x="1585" 
d="M463 524q15 -138 90.5 -200t204.5 -62q76 0 134 23t101.5 62t73.5 92.5t50.5 114.5t32 126.5t17.5 130.5q-41 -38 -91.5 -69t-107 -53t-117.5 -34t-122 -12q-155 0 -275.5 51t-203 140.5t-125.5 210t-43 258.5q0 76 14.5 156t47.5 156t87 143.5t131.5 118.5t181.5 80.5
t238 29.5q157 0 271 -42t194.5 -113.5t130.5 -166.5t77.5 -201.5t37.5 -217.5t10 -214q0 -137 -15 -269.5t-50 -250.5t-92 -218t-141.5 -172.5t-199.5 -113.5t-264 -41q-131 0 -236.5 34.5t-183 104.5t-125 174t-61.5 244h328zM770 934q88 0 156 30t114.5 82.5t70.5 122.5
t24 150q0 81 -25 150.5t-72 119.5t-114.5 78.5t-153.5 28.5q-84 0 -149.5 -29.5t-110.5 -80t-68.5 -118.5t-23.5 -145q0 -80 21.5 -150.5t65 -123.5t110 -84t155.5 -31z" />
    <glyph glyph-name="colon" unicode=":" horiz-adv-x="811" 
d="M602 389v-393h-393v393h393zM602 1454v-393h-393v393h393z" />
    <glyph glyph-name="semicolon" unicode=";" horiz-adv-x="811" 
d="M602 1454v-393h-393v393h393zM602 389v-323q0 -86 -22.5 -164t-69.5 -144t-120.5 -117t-176.5 -83v229q40 14 70 37.5t50 52t30 59.5t10 60h-164v393h393z" />
    <glyph glyph-name="less" unicode="&#x3c;" horiz-adv-x="1827" 
d="M532 758l1127 -508v-270l-1491 663v234l1491 667v-274z" />
    <glyph glyph-name="equal" unicode="=" horiz-adv-x="1708" 
d="M127 901v258h1454v-258h-1454zM127 344v258h1454v-258h-1454z" />
    <glyph glyph-name="greater" unicode="&#x3e;" horiz-adv-x="1827" 
d="M168 1270v274l1491 -667v-234l-1491 -663v270l1126 508z" />
    <glyph glyph-name="question" unicode="?" horiz-adv-x="1647" 
d="M205 1315q-5 161 41.5 296t134 232t213 151t278.5 54q140 0 256 -39t199.5 -113.5t129.5 -183t46 -246.5q0 -89 -25 -157.5t-63 -123.5t-84.5 -99.5t-89.5 -86.5q-40 -37 -78 -73t-68 -77.5t-48.5 -91.5t-18.5 -114v-147h-328v172q3 84 29 151t64 121.5t83 100.5t87 89
q32 34 69.5 72t68.5 82.5t50 95.5t16 111q-6 61 -28 111t-59 85.5t-89.5 54.5t-118.5 19q-90 0 -154.5 -36t-106 -97t-60.5 -142t-19 -171h-327zM1057 381v-381h-398v381h398z" />
    <glyph glyph-name="at" unicode="@" horiz-adv-x="2327" 
d="M1470 504q-52 3 -99.5 29t-84.5 81q-65 -49 -138.5 -83.5t-148.5 -34.5q-80 0 -147.5 31t-116.5 85t-76.5 127.5t-27.5 157.5q0 85 19 168.5t55.5 159.5t89 141.5t119 113t146 74.5t169.5 27q31 0 67.5 -8t72.5 -27t67 -51.5t51 -81.5l10 27.5t12.5 35t12 36.5t10.5 32
h209l-213 -708q-8 -28 -12 -57t-0.5 -53t18 -39t43.5 -15q38 0 79 17.5t80.5 49.5t75.5 77t62.5 100.5t42.5 120t16 134.5q0 162 -59 284.5t-158.5 205t-230 124.5t-273.5 42q-116 0 -220.5 -29.5t-195 -83.5t-163.5 -129.5t-124.5 -168t-79.5 -199t-28 -222.5
q0 -114 29.5 -218t83 -194t129 -163.5t167 -126t196.5 -81t219 -28.5q92 0 185 14t180 45.5t165 82.5t141 125h263q-88 -126 -196 -215.5t-229 -146t-251 -83t-262 -26.5q-151 0 -289 36t-257.5 101.5t-216.5 159t-166.5 208.5t-107 249.5t-37.5 281.5q0 143 38 274.5
t107.5 245.5t167 207t215.5 159t253 102t280 36q131 0 254 -29t231 -83t197.5 -130.5t153.5 -171.5t99.5 -206.5t35.5 -235.5q0 -115 -33.5 -211t-89.5 -173t-128.5 -134.5t-151.5 -95t-158 -54t-148 -12.5zM1233 1380q-56 0 -105.5 -21.5t-90.5 -57.5t-73 -84t-54.5 -100
t-34 -106t-11.5 -102q0 -44 14 -81.5t39 -64.5t59.5 -42.5t76.5 -15.5q48 0 92 22.5t82.5 60t69.5 86.5t53.5 102t34.5 107t12 101q0 35 -11.5 70t-32.5 63t-51.5 45.5t-68.5 17.5z" />
    <glyph glyph-name="A" unicode="A" horiz-adv-x="1929" 
d="M1212 868l-262 734l-258 -734h520zM1151 1999l778 -1999h-397l-201 561h-762q-27 -72 -51.5 -141.5t-48.5 -138.5t-48.5 -139t-51.5 -142h-369l766 1999h385z" />
    <glyph glyph-name="B" unicode="B" horiz-adv-x="1929" 
d="M1012 1176q101 0 173.5 16t118.5 49t67.5 82t21.5 115q0 65 -12.5 110t-35.5 73.5t-56.5 43.5t-76 22t-93 8t-107.5 1h-467v-520h467zM999 1999q90 0 180 -7t172.5 -26.5t153.5 -54.5t123.5 -91.5t82.5 -137.5t30 -191q0 -146 -52.5 -250.5t-160.5 -175.5
q72 -31 127.5 -78.5t94 -108t58 -132.5t19.5 -152q0 -74 -19 -146.5t-56 -138.5t-92 -122.5t-127 -98t-160.5 -65t-192.5 -23.5h-987v1999h806zM1143 299q80 0 142 21t104 60.5t64 96.5t22 129q0 80 -33.5 131.5t-88.5 81.5t-124 41.5t-139 11.5h-545v-573h598z" />
    <glyph glyph-name="C" unicode="C" horiz-adv-x="2032" 
d="M1561 1356q-20 103 -63.5 176.5t-106.5 120.5t-145.5 69.5t-180.5 22.5q-107 0 -195 -28t-156.5 -78t-119 -119t-83.5 -150.5t-49 -172.5t-16 -185q0 -154 36.5 -291t112.5 -240t193.5 -163t280.5 -60q120 0 212 39.5t156.5 110t100 168.5t43.5 215h352
q-20 -200 -85.5 -354.5t-176.5 -259.5t-267 -159.5t-355 -54.5q-160 0 -292.5 36t-239 101.5t-186 158.5t-132 207t-79 247t-26.5 278q0 148 28 283t83.5 252t138 212.5t190.5 163.5t242 105t293 37q166 0 308.5 -43t253.5 -129t186 -215t104 -301h-360v0z" />
    <glyph glyph-name="D" unicode="D" horiz-adv-x="1982" 
d="M922 299q42 0 104.5 6.5t132.5 30.5t139 70t125 125t90.5 195.5t34.5 281.5q0 164 -33.5 292t-107 216t-191 134t-286.5 46h-385v-1397h377zM901 1999q240 0 425 -58.5t312 -177t192.5 -296.5t65.5 -418q0 -252 -57.5 -447.5t-179 -329t-309.5 -203t-449 -69.5h-708v1999
h708z" />
    <glyph glyph-name="E" unicode="E" horiz-adv-x="1720" 
d="M1638 1999v-303h-1093v-520h1016v-304h-1016v-573h1097v-299h-1449v1999h1445z" />
    <glyph glyph-name="F" unicode="F" horiz-adv-x="1618" 
d="M1569 1999v-303h-1024v-520h893v-304h-893v-872h-352v1999h1376z" />
    <glyph glyph-name="G" unicode="G" horiz-adv-x="2134" 
d="M1679 184q-61 -57 -133.5 -98.5t-150.5 -68.5t-159 -40.5t-159 -13.5q-154 0 -287 37t-242.5 104t-194 159.5t-142 203.5t-87.5 237t-30 259q0 144 27.5 280.5t82 256.5t136.5 220t191 172t245.5 112t300.5 40q110 0 213.5 -16.5t196 -51.5t172 -91t140 -134
t100.5 -180.5t55 -231.5h-348q-20 111 -68.5 188t-118 125.5t-157 70.5t-185.5 22q-111 0 -201.5 -30t-160.5 -83t-121 -125.5t-83.5 -157.5t-48.5 -179.5t-16 -190.5q0 -94 18.5 -184t54.5 -170.5t89.5 -147.5t123.5 -116t156.5 -76t188.5 -27q130 0 236 42t181 114
t117.5 169t47.5 208h-627v303h955v-1094h-250z" />
    <glyph glyph-name="H" unicode="H" horiz-adv-x="2032" 
d="M545 1999v-823h942v823h352v-1999h-352v872h-942v-872h-352v1999h352z" />
    <glyph glyph-name="I" unicode="I" horiz-adv-x="795" 
d="M573 1999v-1999h-352v1999h352z" />
    <glyph glyph-name="J" unicode="J" horiz-adv-x="1466" 
d="M1274 532q0 -109 -29.5 -212t-100.5 -183.5t-191.5 -129t-301.5 -48.5q-301 0 -459.5 155.5t-158.5 450.5v152h360v-123q0 -75 10.5 -137t39.5 -106.5t81 -68.5t135 -24q75 0 125.5 21.5t81 60.5t43.5 94t13 123v1442h352v-1467z" />
    <glyph glyph-name="K" unicode="K" horiz-adv-x="1933" 
d="M545 1999v-893l897 893h463l-852 -815l868 -1184h-426l-684 942q-71 -65 -133 -129t-133 -129v-684h-352v1999h352z" />
    <glyph glyph-name="L" unicode="L" horiz-adv-x="1552" 
d="M545 1999v-1700h995v-299h-1347v1999h352z" />
    <glyph glyph-name="M" unicode="M" horiz-adv-x="2433" 
d="M2241 1999v-1999h-353v1442q-66 -186 -131 -366t-129.5 -358.5t-129 -356.5t-130.5 -361h-303l-520 1446v-1446h-352v1999h471l548 -1565l553 1565h476z" />
    <glyph glyph-name="N" unicode="N" horiz-adv-x="2040" 
d="M1442 0l-897 1479v-1479h-352v1999h401l901 -1491v1491h352v-1999h-405z" />
    <glyph glyph-name="O" unicode="O" horiz-adv-x="2138" 
d="M434 999q0 -92 15.5 -182.5t48 -173t83 -153t120.5 -122t160.5 -81t203.5 -29.5q115 0 207 29.5t163 81t122 122t83.5 153t48 173t15.5 182.5t-15.5 183.5t-48 174t-83.5 153.5t-122 123.5t-163 82t-207 29.5q-113 0 -203.5 -29.5t-160.5 -82t-120.5 -123.5t-83 -153.5
t-48 -174t-15.5 -183.5zM82 999q0 137 27 268t81.5 247t136 213.5t190.5 167.5t246 109.5t302 39.5q166 0 304 -39.5t248 -109.5t192.5 -167.5t137 -213.5t82 -247t27.5 -268t-27.5 -267t-82 -245t-137 -211.5t-192.5 -166t-248 -108t-304 -38.5q-165 0 -302 38.5t-246 108
t-190.5 166t-136 211.5t-81.5 245t-27 267z" />
    <glyph glyph-name="P" unicode="P" horiz-adv-x="1827" 
d="M999 1085q203 -3 298.5 76.5t95.5 227.5q0 150 -95.5 228.5t-298.5 78.5h-454v-611h454zM1090 1999q163 0 285 -40.5t203.5 -118.5t122 -191.5t40.5 -259.5q0 -143 -40.5 -255.5t-122 -190.5t-203.5 -118.5t-285 -38.5h-545v-786h-352v1999h897z" />
    <glyph glyph-name="Q" unicode="Q" horiz-adv-x="2138" 
d="M82 999q0 137 27 268t81.5 247t136 213.5t190.5 167.5t246 109.5t302 39.5q166 0 304 -39.5t248 -109.5t192.5 -167.5t137 -213.5t82 -247t27.5 -268q0 -107 -17 -210t-50 -198t-83 -180t-116 -157l274 -217l-188 -234l-332 267q-102 -53 -221 -80t-258 -27
q-165 0 -302 38.5t-246 108t-190.5 166t-136 211.5t-81.5 245t-27 267zM434 999q0 -92 15.5 -182.5t48 -173t83 -153t120.5 -122t160.5 -81t203.5 -29.5q59 0 110.5 6.5t98.5 22.5l-184 151l192 230l254 -205q43 52 74.5 115t52.5 132t31 142t10 147q0 92 -15.5 183.5
t-48 174t-83.5 153.5t-122 123.5t-163 82t-207 29.5q-113 0 -203.5 -29.5t-160.5 -82t-120.5 -123.5t-83 -153.5t-48 -174t-15.5 -183.5z" />
    <glyph glyph-name="R" unicode="R" horiz-adv-x="1929" 
d="M1155 1999q154 0 274 -37t203 -106.5t126.5 -171t43.5 -230.5q0 -78 -14 -151t-44.5 -136t-78 -114t-113.5 -86q68 -43 107.5 -105t61.5 -133t31 -146.5t17 -144.5q6 -54 10 -109t17 -110t41.5 -110t83.5 -109h-401q-25 28 -41 61t-25.5 71.5t-14 83t-5.5 95.5
q-3 51 -7.5 107.5t-14.5 111.5t-29 105.5t-51.5 90t-81.5 64.5t-120 29h-585v-819h-352v1999h962zM1036 1114q80 0 154.5 13.5t132.5 47.5t92.5 93t34.5 149q0 63 -18 114.5t-56 88t-97 56.5t-140 20h-594v-582h491z" />
    <glyph glyph-name="S" unicode="S" horiz-adv-x="1827" 
d="M1315 1372q-11 106 -44.5 177.5t-88 115t-129 62t-168.5 18.5q-74 0 -144.5 -14.5t-126 -47.5t-89 -87t-33.5 -134q0 -66 38.5 -110t104 -75t152.5 -52t184 -41q91 -19 183.5 -39.5t178.5 -50.5t161.5 -73t131 -105t87.5 -147t32 -200q0 -111 -33.5 -199.5t-91.5 -156
t-136.5 -115t-168.5 -77.5t-187.5 -44t-193.5 -14q-118 0 -226 17.5t-202 55t-170.5 96t-131 141t-84.5 190t-30 242.5h336q0 -123 41 -208t111 -138.5t164 -77t200 -23.5q55 0 110.5 5.5t106 18.5t94 35t75.5 56t50.5 80t18.5 108q0 78 -43.5 130t-116 86.5t-167.5 57
t-198 42.5q-89 18 -178 38.5t-170.5 49t-151.5 68.5t-122 96.5t-81.5 133t-29.5 179.5t29 188t81 152t123 116t155.5 81.5t178.5 48.5t191 16q161 0 295.5 -37.5t233.5 -118.5t157.5 -208.5t67.5 -307.5h-336v0z" />
    <glyph glyph-name="T" unicode="T" horiz-adv-x="1626" 
d="M25 1696v303h1577v-303h-619v-1696h-352v1696h-606z" />
    <glyph glyph-name="U" unicode="U" horiz-adv-x="2056" 
d="M1864 733q0 -194 -54.5 -339t-159 -241.5t-257 -145t-349.5 -48.5q-203 0 -361 45.5t-267 140.5t-166 241t-57 347v1266h352v-1266q0 -239 125.5 -357t373.5 -118q234 0 350.5 118t116.5 357v1266h353v-1266z" />
    <glyph glyph-name="V" unicode="V" horiz-adv-x="1786" 
d="M692 0l-692 1999h385l512 -1565l516 1565h373l-705 -1999h-389z" />
    <glyph glyph-name="W" unicode="W" horiz-adv-x="2589" 
d="M1683 0l-401 1499l-405 -1499h-361l-516 1999h365l352 -1458q95 368 192.5 730t192.5 728h381l389 -1467l360 1467h357l-537 -1999h-369z" />
    <glyph glyph-name="X" unicode="X" horiz-adv-x="1802" 
d="M37 1999h426l438 -701l459 701h401l-655 -971l696 -1028h-430l-475 733l-491 -733h-406l684 1032z" />
    <glyph glyph-name="Y" unicode="Y" horiz-adv-x="1896" 
d="M1126 0h-356v803l-770 1196h426l532 -860l525 860h413l-770 -1192v-807z" />
    <glyph glyph-name="Z" unicode="Z" horiz-adv-x="1855" 
d="M1270 1696h-1073v303h1523v-279l-1159 -1421h1196v-299h-1659v274z" />
    <glyph glyph-name="bracketleft" unicode="[" horiz-adv-x="770" 
d="M496 1782v-2061h254v-266h-574v2593h574v-266h-254z" />
    <glyph glyph-name="backslash" unicode="\" horiz-adv-x="1057" 
d="M274 2048l820 -2089h-303l-828 2089h311z" />
    <glyph glyph-name="bracketright" unicode="]" horiz-adv-x="770" 
d="M20 1782v266h574v-2593h-574v266h254v2061h-254z" />
    <glyph glyph-name="asciicircum" unicode="^" horiz-adv-x="1708" 
d="M991 1974l611 -1220h-259l-487 975l-475 -975h-275l615 1220h270z" />
    <glyph glyph-name="underscore" unicode="_" horiz-adv-x="1446" 
d="M1425 -188v-234h-1405v234h1405z" />
    <glyph glyph-name="grave" unicode="`" horiz-adv-x="795" 
d="M463 2048l250 -414h-258l-373 414h381z" />
    <glyph glyph-name="a" unicode="a" horiz-adv-x="1532" 
d="M1503 33q-49 -34 -96 -50t-109 -16q-43 0 -81 9t-69 28t-53.5 49.5t-33.5 73.5q-45 -38 -99 -68t-114 -50.5t-123.5 -31t-126.5 -10.5q-106 0 -200.5 23.5t-165.5 74.5t-112.5 132t-41.5 196q0 94 24 161t66.5 113.5t101 77.5t127.5 52.5t146 38.5t157 36q55 14 114 28
t107.5 32t79.5 42t31 58q0 58 -23.5 91t-61.5 49.5t-85.5 20t-95.5 3.5q-63 0 -115 -9t-90.5 -35.5t-60.5 -75t-25 -126.5h-336q4 102 30 182t69 139.5t102 100.5t129.5 66.5t150.5 37t166 11.5q70 0 140 -6.5t135 -24t121 -47t97.5 -76.5t65 -113t23.5 -155v-709
q0 -46 3 -68t22 -22q4 0 11 0.5t19 3.5t31.5 10t48.5 19v-266zM651 258q103 0 175.5 25.5t118 64.5t66.5 85t21 87v185q-59 -25 -129 -44t-129 -34q-66 -17 -129.5 -33.5t-113 -40t-79.5 -57.5t-30 -86q0 -42 18.5 -71t50 -47t73 -26t87.5 -8z" />
    <glyph glyph-name="b" unicode="b" horiz-adv-x="1688" 
d="M492 1999v-672q40 46 89 80t103 56t111 33t114 11q118 0 215.5 -29.5t174.5 -82t135 -124.5t96 -157.5t57 -181.5t19 -195q0 -160 -42 -300t-127.5 -244.5t-214.5 -165t-304 -60.5q-57 0 -113 8.5t-110 29.5t-105 55.5t-98 86.5v-147h-336v1999h336zM1253 750
q0 86 -21.5 169t-68.5 148t-120.5 105t-178.5 40q-106 0 -179.5 -42t-119 -109.5t-66 -152.5t-20.5 -171q0 -92 21.5 -177.5t69 -151.5t124 -106t187.5 -40q106 0 177 41.5t114.5 110t62 156.5t18.5 180z" />
    <glyph glyph-name="c" unicode="c" horiz-adv-x="1532" 
d="M1126 938q-14 74 -42 123.5t-69 79.5t-92.5 42.5t-111.5 12.5q-114 0 -190 -40.5t-122 -108t-65.5 -155.5t-19.5 -183q0 -86 21.5 -167.5t67 -144.5t117 -101t171.5 -38q153 0 234 77.5t105 237.5h345q-28 -147 -82 -260.5t-137.5 -190t-199 -116t-265.5 -39.5
q-179 0 -312.5 55.5t-222.5 154.5t-133.5 235t-44.5 297q0 163 43.5 305t132.5 247t224.5 165.5t320.5 60.5q130 0 244.5 -31t202 -97.5t144.5 -170.5t72 -250h-336v0z" />
    <glyph glyph-name="d" unicode="d" horiz-adv-x="1688" 
d="M1532 1999v-1999h-336v147q-48 -52 -98 -86.5t-103 -55.5t-109 -29.5t-116 -8.5q-175 0 -304.5 60.5t-214.5 165t-127 244.5t-42 300q0 99 19 195t57 181.5t95.5 157.5t135 124.5t174.5 82t215 29.5q57 0 114.5 -10.5t111.5 -32t103 -55.5t89 -82v672h336zM434 750
q0 -92 18.5 -180t62 -156.5t115 -110t177.5 -41.5q111 0 187.5 40t124 106t68.5 151.5t21 177.5q0 86 -20.5 171t-66 152.5t-119 109.5t-179.5 42q-104 0 -178 -40t-121 -105t-68.5 -148t-21.5 -169z" />
    <glyph glyph-name="e" unicode="e" horiz-adv-x="1532" 
d="M1466 504q-27 -137 -86.5 -238t-145.5 -167.5t-196 -99t-239 -32.5q-185 0 -320.5 57t-224.5 159t-132.5 242.5t-43.5 307.5q0 171 52 310t146.5 237.5t226.5 152.5t292 54q125 0 226.5 -34.5t180.5 -95t136 -143.5t92.5 -180t50.5 -204t10 -216h-1069q4 -74 29 -138.5
t72.5 -113t118 -76.5t165.5 -28q60 0 112.5 12.5t95 41t74.5 76t50 116.5h327zM782 1196q-72 0 -132 -23t-105.5 -62.5t-76 -92.5t-42.5 -113h713q-14 58 -46 111t-78.5 93t-105.5 63.5t-127 23.5z" />
    <glyph glyph-name="f" unicode="f" horiz-adv-x="938" 
d="M49 1143v311h221v205q0 199 116 302t331 103q40 0 88.5 -9t91.5 -27v-304q-46 25 -87.5 33t-72.5 8q-65 0 -98 -26.5t-33 -91.5v-193h262v-311h-262v-1143h-336v1143h-221z" />
    <glyph glyph-name="g" unicode="g" horiz-adv-x="1638" 
d="M774 270q106 0 178 42.5t116.5 111t63.5 154.5t19 172q0 81 -19 161t-61 143.5t-110 102.5t-166 39q-102 0 -173 -37t-115.5 -99.5t-64.5 -145t-20 -173.5q0 -83 17.5 -167t58.5 -151.5t108.5 -110t167.5 -42.5zM1483 94q0 -180 -42.5 -313.5t-130 -222t-223 -132.5
t-321.5 -44q-70 0 -143 12t-142 38t-131 66t-109.5 95.5t-76.5 127t-33 160.5h332q4 -58 36.5 -100t79 -69t101.5 -39.5t106 -12.5q103 0 175 31t117 89t65 140.5t20 185.5v29q-40 -37 -87.5 -65t-99 -47t-106 -29t-108.5 -10q-172 0 -300.5 59.5t-213.5 160.5t-127.5 234.5
t-42.5 282.5q0 84 14.5 173.5t48 174.5t87 161t132 133t183 90.5t239.5 33.5q115 0 211 -35t170 -113v115h320v-1360z" />
    <glyph glyph-name="h" unicode="h" horiz-adv-x="1589" 
d="M492 1999v-664q41 36 91 64.5t103.5 49t107.5 31.5t103 11q158 0 262 -41.5t165 -114.5t85.5 -172.5t24.5 -216.5v-946h-336v967q0 108 -60 168.5t-178 60.5q-92 0 -161 -30t-115 -81.5t-69 -120t-23 -145.5v-819h-336v1999h336z" />
    <glyph glyph-name="i" unicode="i" horiz-adv-x="705" 
d="M184 1630v369h336v-369h-336zM520 1454v-1454h-336v1454h336z" />
    <glyph glyph-name="j" unicode="j" horiz-adv-x="705" 
d="M184 1630v369h336v-369h-336zM520 -172q0 -109 -28 -187.5t-80 -128.5t-125 -74t-164 -24q-40 0 -84 3t-84 10v299q28 -3 47.5 -5t35 -3t29.5 -1h31q49 0 67.5 32.5t18.5 115.5v1589h336v-1626z" />
    <glyph glyph-name="k" unicode="k" horiz-adv-x="1532" 
d="M487 1999v-1069l553 524h447l-590 -541l610 -913h-405l-455 680l-160 -143v-537h-331v1999h331z" />
    <glyph glyph-name="l" unicode="l" horiz-adv-x="705" 
d="M520 1999v-1999h-336v1999h336z" />
    <glyph glyph-name="m" unicode="m" horiz-adv-x="2408" 
d="M479 1454v-143q84 86 185.5 129t228.5 43q61 0 121 -11.5t113.5 -35t98.5 -59t77 -83.5q164 189 426 189q120 0 216.5 -25.5t165 -79.5t105.5 -139t37 -203v-1036h-336v958q0 54 -10.5 97.5t-36 73.5t-69 46.5t-109.5 16.5q-75 0 -134.5 -21t-101 -60t-63 -95.5
t-21.5 -126.5v-889h-336v934q0 55 -9 102.5t-33 82t-65.5 54t-105.5 19.5q-63 0 -111.5 -16t-85.5 -42t-62.5 -58.5t-41.5 -66t-23 -65.5t-7 -55v-889h-336v1454h323z" />
    <glyph glyph-name="n" unicode="n" horiz-adv-x="1589" 
d="M479 1454v-151q74 85 175.5 132.5t242.5 47.5q158 0 262 -41t165 -113.5t85.5 -172.5t24.5 -218v-938h-332v963q0 108 -62 168.5t-180 60.5q-92 0 -161 -30t-115 -81.5t-69 -120t-23 -145.5v-815h-336v1454h323z" />
    <glyph glyph-name="o" unicode="o" horiz-adv-x="1634" 
d="M422 725q0 -115 31 -202.5t84.5 -146t126 -88.5t155.5 -30q80 0 151.5 30t125 88.5t85 146t31.5 202.5q0 112 -31.5 199.5t-85 148t-125 92t-151.5 31.5q-83 0 -155.5 -31.5t-126 -92t-84.5 -148t-31 -199.5zM78 725q0 161 46.5 300.5t139.5 242t232 161t323 58.5
q183 0 322 -58.5t232 -161t140.5 -242t47.5 -300.5q0 -160 -47.5 -298.5t-140.5 -240.5t-232 -160.5t-322 -58.5q-184 0 -323 58.5t-232 160.5t-139.5 240.5t-46.5 298.5z" />
    <glyph glyph-name="p" unicode="p" horiz-adv-x="1688" 
d="M156 -545v1999h336v-147q47 52 99 86.5t106.5 55.5t111 29.5t113.5 8.5q175 0 304 -60.5t213.5 -165t125.5 -244.5t41 -300q0 -100 -18.5 -195.5t-56.5 -181t-95 -157.5t-134 -124.5t-174 -82t-215 -29.5q-57 0 -115 11t-112.5 33t-104 56t-89.5 80v-672h-336zM1253 705
q0 92 -18.5 179.5t-62 156t-114.5 110t-177 41.5q-111 0 -187.5 -39.5t-124 -105.5t-69 -152t-21.5 -178q0 -86 20.5 -171t66 -152.5t119 -109.5t179.5 -42q105 0 178.5 40t120.5 105t68.5 148.5t21.5 169.5z" />
    <glyph glyph-name="q" unicode="q" horiz-adv-x="1688" 
d="M1196 -545v672q-40 -46 -89.5 -80t-104.5 -56t-113 -33t-115 -11q-118 0 -215 29.5t-174 82t-134 124.5t-94.5 157.5t-56 181t-18.5 195.5q0 160 41 300t125.5 244.5t213.5 165t304 60.5q57 0 113.5 -8.5t111 -29.5t106 -55.5t99.5 -86.5v147h336v-1999h-336zM434 705
q0 -86 21.5 -169.5t68.5 -148.5t121 -105t178 -40q106 0 179.5 42t119 109.5t66 152.5t20.5 171q0 92 -21 178t-68.5 152t-124 105.5t-187.5 39.5q-106 0 -177.5 -41.5t-115 -110t-62 -156t-18.5 -179.5z" />
    <glyph glyph-name="r" unicode="r" horiz-adv-x="987" 
d="M479 1454v-180q43 54 89.5 93.5t104 66t129 38.5t165.5 11v-328q-144 0 -236.5 -34.5t-145.5 -99.5t-73 -159.5t-20 -214.5v-647h-336v1454h323z" />
    <glyph glyph-name="s" unicode="s" horiz-adv-x="1430" 
d="M393 520q5 -78 34 -129.5t74.5 -82t104 -42.5t123.5 -12q48 0 99 6.5t94 24.5t70.5 49t27.5 80q0 44 -29.5 74t-79 51t-113 36.5t-130.5 30.5q-64 13 -132 30.5t-132.5 42t-121.5 57.5t-99.5 78t-67.5 104t-25 135q0 77 24 139t65.5 110t97.5 83t121 57.5t136 33.5
t142 11q126 0 237.5 -25t196.5 -85t138.5 -160t62.5 -250h-336q-5 66 -31.5 110.5t-67 72t-90 39t-98.5 11.5q-43 0 -87.5 -6.5t-80.5 -22t-59 -40.5t-23 -62q0 -35 26.5 -60t71 -44t103 -34t123.5 -30l102 -24q103 -25 194.5 -56.5t160.5 -80.5t109 -120t40 -174
q0 -94 -26.5 -166t-72.5 -125.5t-108.5 -89t-135 -57.5t-151 -31.5t-157.5 -9.5q-134 0 -250.5 29t-204 94t-142 171t-63.5 259h336v0z" />
    <glyph glyph-name="t" unicode="t" horiz-adv-x="918" 
d="M840 1454v-311h-267v-766q0 -26 6 -41.5t20.5 -23.5t39 -10.5t61.5 -2.5h156v-299h-225q-105 0 -178.5 15t-120.5 55t-68.5 110t-21.5 180v783h-222v311h222v430h331v-430h267z" />
    <glyph glyph-name="u" unicode="u" horiz-adv-x="1597" 
d="M1114 -4l-4 143q-77 -80 -178.5 -126t-231.5 -46q-158 0 -262.5 40.5t-167 113t-88.5 173.5t-26 222v938h344v-967q0 -105 59.5 -163t173.5 -58q97 0 166.5 28t114.5 78t66.5 119t21.5 152v811h340v-1458h-328z" />
    <glyph glyph-name="v" unicode="v" horiz-adv-x="1491" 
d="M573 0l-536 1454h373l348 -1036l336 1036h360l-532 -1454h-349z" />
    <glyph glyph-name="w" unicode="w" horiz-adv-x="2195" 
d="M1348 0l-250 942l-238 -942h-360l-463 1454h377l270 -979l242 979h356l254 -979l266 979h357l-463 -1454h-348z" />
    <glyph glyph-name="x" unicode="x" horiz-adv-x="1540" 
d="M61 1454h414l291 -426l295 426h414l-500 -672l545 -782h-414l-340 512l-344 -512h-402l537 762z" />
    <glyph glyph-name="y" unicode="y" horiz-adv-x="1503" 
d="M844 -205q-43 -109 -89 -186.5t-100.5 -127t-120.5 -72.5t-149 -23q-43 0 -95.5 3.5t-105.5 24.5v320q59 -22 100 -29.5t72 -7.5q53 0 91.5 24t60.5 70l90 225l-569 1438h368l373 -1036q89 264 177.5 519.5t174.5 516.5h353z" />
    <glyph glyph-name="z" unicode="z" horiz-adv-x="1511" 
d="M930 1155h-750v299h1209v-225l-816 -934h803v-295h-1253v238z" />
    <glyph glyph-name="braceleft" unicode="{" horiz-adv-x="967" 
d="M778 1802q-37 0 -62 -9.5t-40.5 -30.5t-22 -53.5t-6.5 -78.5v-504q0 -80 -23 -143.5t-56 -111.5t-69.5 -79.5t-64.5 -46.5q28 -11 64.5 -34.5t69.5 -67t56 -110.5t23 -164v-504q0 -84 28.5 -124t102.5 -40h115v-246h-205q-74 0 -138 23t-111.5 69t-75 115.5t-27.5 161.5
v504q0 73 -18 132.5t-49.5 100.5t-73 63.5t-89.5 22.5v201q48 0 89.5 25t73 68.5t49.5 101.5t18 124v508q0 89 28 158.5t76 117t112 72.5t136 25h205v-246h-115z" />
    <glyph glyph-name="bar" unicode="|" horiz-adv-x="655" 
d="M467 2200v-2790h-279v2790h279z" />
    <glyph glyph-name="braceright" unicode="}" horiz-adv-x="967" 
d="M74 1802v246h205q72 0 136 -25t112 -72.5t76 -117t28 -158.5v-508q0 -66 18 -124t49 -101.5t72.5 -68.5t89.5 -25v-201q-48 0 -89.5 -22.5t-72.5 -63.5t-49 -100.5t-18 -132.5v-504q0 -92 -27.5 -161.5t-75 -115.5t-112 -69t-137.5 -23h-205v246h114q74 0 102.5 40.5
t28.5 123.5v504q0 97 23 164t56 110.5t70 67t64 34.5q-27 15 -64 46.5t-70 79.5t-56 111.5t-23 143.5v504q0 92 -28.5 132t-102.5 40h-114z" />
    <glyph glyph-name="asciitilde" unicode="~" horiz-adv-x="1708" 
d="M1552 750q-32 -51 -70 -100.5t-86.5 -88t-109.5 -62.5t-139 -24q-54 0 -108 15t-106.5 37t-104 48.5t-100.5 48.5t-96 37t-91 15q-31 0 -61 -21t-59.5 -55t-59 -76.5t-58.5 -85.5l-143 205q26 54 62 104.5t84.5 90.5t111.5 64t143 24q54 0 108.5 -15t108 -37t104.5 -48.5
t98.5 -48.5t90.5 -37t80 -15q32 0 66.5 22t67.5 55.5t63 74t53 77.5z" />
    <glyph glyph-name="uni00A0" unicode="&#xa0;" horiz-adv-x="496" 
 />
    <glyph glyph-name="cent" unicode="&#xa2;" horiz-adv-x="1544" 
d="M1135 963q-11 58 -31.5 101t-49 73t-64 48t-77.5 27v-917q96 25 150 100.5t76 202.5h344q-25 -134 -71 -238.5t-116 -180t-165 -120.5t-218 -59v-299h-221v299q-152 15 -265.5 76t-189.5 157t-113.5 223.5t-37.5 276.5t36.5 281t111.5 234.5t189 169.5t269 85v266h221
v-262q111 -12 206.5 -49.5t169 -104t120.5 -163.5t61 -227h-335zM422 733q0 -74 15.5 -144t48.5 -128.5t84 -102t122 -63.5v909q-77 -21 -128.5 -67.5t-83 -109.5t-45 -138.5t-13.5 -155.5z" />
    <glyph glyph-name="sterling" unicode="&#xa3;" horiz-adv-x="1544" 
d="M209 1085q-40 78 -67 168.5t-27 204.5q0 137 55.5 245.5t149 184.5t217 116t258.5 40q164 0 294.5 -48.5t221 -145t138 -242t46.5 -338.5h-328q-5 117 -28 208t-67 154t-109 96t-152 33q-77 0 -141.5 -24t-111.5 -66t-73 -100t-26 -125q0 -51 10 -99t26.5 -93.5t38 -87.5
t44.5 -81h462v-213h-352q13 -34 21 -74t8 -77q0 -60 -13 -116t-35.5 -106.5t-52 -95.5t-63.5 -84q25 7 47.5 10t50.5 3q90 0 156 -15t119 -30q44 -12 76 -21t57 -14t44.5 -7.5t39.5 -2.5q28 0 60 10t65 27t65 39t60 47l180 -250q-54 -46 -112.5 -76t-118.5 -48t-119.5 -25
t-116.5 -7q-83 0 -152 16t-139 37q-77 25 -141.5 39.5t-132.5 14.5q-72 0 -142.5 -30.5t-144.5 -76.5l-193 246q66 38 125.5 90t104.5 112.5t71.5 128t26.5 136.5q0 23 -4.5 49t-12 52.5t-18 52t-22.5 46.5h-250v213h127z" />
    <glyph glyph-name="yen" unicode="&#xa5;" horiz-adv-x="1651" 
d="M262 406v258h393v98l-32 61h-361v254h221l-487 922h414l430 -881l413 881h402l-484 -922h234v-254h-369l-32 -61v-98h401v-258h-401v-406h-349v406h-393z" />
    <glyph glyph-name="copyright" unicode="&#xa9;" horiz-adv-x="2228" 
d="M66 987q0 145 38 278.5t106.5 248.5t164 209t211.5 160.5t249 103t275 36.5t274.5 -36.5t248 -103t211 -160.5t163.5 -209t105.5 -248.5t37.5 -278.5q0 -149 -37.5 -284t-105.5 -250t-163.5 -208t-211 -158.5t-248 -100.5t-274.5 -35t-275 35t-249 100.5t-211.5 158.5
t-164 208t-106.5 249.5t-38 284.5zM307 987q0 -180 60 -332.5t166.5 -264.5t254 -175t322.5 -63q113 0 216 28.5t192.5 81.5t162 128t124.5 167.5t80 201t28 228.5t-28 228t-80 200t-124.5 166t-162 126t-192.5 80t-216 28q-175 0 -322.5 -62t-254 -172.5t-166.5 -262
t-60 -331.5zM1671 819q-26 -114 -75.5 -202t-117.5 -149t-153 -92.5t-182 -31.5q-141 0 -255.5 48.5t-195.5 134t-124.5 202.5t-43.5 254q0 138 42.5 254t121 200t190.5 130.5t252 46.5q103 0 192 -27.5t158.5 -83.5t117.5 -141.5t69 -202.5h-221q-12 54 -40 101t-68.5 82
t-91.5 55t-111 20q-89 0 -158.5 -32.5t-117 -90t-72.5 -136.5t-25 -171q0 -84 26 -163t75 -140t120 -98t160 -37q57 0 107 19t90 54.5t67.5 85t38.5 111.5h225z" />
    <glyph glyph-name="guillemotleft" unicode="&#xab;" horiz-adv-x="1286" 
d="M131 922l438 344v-283l-266 -213l266 -209v-287l-438 349v299zM676 922l438 344v-283l-270 -213l270 -209v-287l-438 349v299z" />
    <glyph glyph-name="registered" unicode="&#xae;" horiz-adv-x="2216" 
d="M66 987q0 145 38 278.5t106.5 248.5t164 209t211.5 160.5t249 103t275 36.5t274.5 -36.5t248 -103t211 -160.5t163.5 -209t105.5 -248.5t37.5 -278.5q0 -149 -37.5 -284t-105.5 -250t-163.5 -208t-211 -158.5t-248 -100.5t-274.5 -35t-275 35t-249 100.5t-211.5 158.5
t-164 208t-106.5 249.5t-38 284.5zM307 987q0 -180 60 -332.5t166.5 -264.5t254 -175t322.5 -63q113 0 216 28.5t192.5 81.5t162 128t124.5 167.5t80 201t28 228.5t-28 228t-80 200t-124.5 166t-162 126t-192.5 80t-216 28q-175 0 -322.5 -62t-254 -172.5t-166.5 -262
t-60 -331.5zM1069 1053q46 0 90.5 4t79 19t55.5 44t21 80q0 40 -19 65.5t-48 40t-64.5 20t-69.5 5.5h-180v-278h135zM1143 1536q208 0 308.5 -81t100.5 -259q0 -60 -17.5 -111.5t-50 -92.5t-77.5 -70.5t-100 -44.5l278 -443h-266l-266 418h-119v-418h-242v1102h451z" />
    <glyph glyph-name="guillemotright" unicode="&#xbb;" horiz-adv-x="1286" 
d="M1155 623l-438 -349v287l266 209l-266 213v283l438 -344v-299zM610 623l-438 -349v287l270 209l-270 213v283l438 -344v-299z" />
    <glyph glyph-name="onequarter" unicode="&#xbc;" horiz-adv-x="2335" 
d="M1901 1999l-1143 -1999h-258l1142 1999h259zM135 1729q61 3 115.5 14.5t98.5 36.5t75.5 67t46.5 107h209v-1213h-238v815q-58 -27 -131.5 -38.5t-175.5 -14.5v226zM1831 475v336l-258 -336h258zM2232 475v-221h-164v-254h-237v254h-524v205l573 758h188v-742h164z" />
    <glyph glyph-name="onehalf" unicode="&#xbd;" horiz-adv-x="2335" 
d="M1368 729q0 103 31 191.5t89 153t141 101.5t186 37q87 0 165.5 -26t137 -74t93 -117t34.5 -155q0 -60 -17.5 -112t-47 -96.5t-69 -82.5t-82.5 -70t-88 -59.5t-86 -50.5q-21 -12 -48.5 -27.5t-56 -35t-57 -42.5t-51.5 -51h586v-213h-889q8 120 40 204t81.5 145.5t112 105
t131.5 82.5q67 40 120.5 73t90.5 67.5t56.5 73t19.5 89.5q0 74 -48 114.5t-128 40.5q-51 0 -87.5 -22t-60 -59t-34.5 -85t-11 -100h-254zM1815 1999l-1143 -1999h-258l1142 1999h259zM135 1729q61 3 115.5 14.5t98.5 36.5t75.5 67t46.5 107h209v-1213h-238v815
q-58 -27 -131.5 -38.5t-175.5 -14.5v226z" />
    <glyph glyph-name="threequarters" unicode="&#xbe;" horiz-adv-x="2335" 
d="M586 1475q34 0 67 8t59 24t42 40.5t16 58.5t-14 59t-37.5 42t-54 25.5t-62.5 8.5q-49 0 -82 -15.5t-53 -43.5t-28.5 -67t-8.5 -87h-254q8 101 38.5 181t84 135.5t129.5 84.5t174 29q91 0 167.5 -21.5t132 -65.5t87 -110t31.5 -155q0 -59 -33.5 -116t-89.5 -97
q87 -44 131.5 -117t44.5 -166q0 -97 -39 -169t-104 -120t-149 -72t-175 -24q-97 0 -180.5 26.5t-145.5 80.5t-97.5 136.5t-35.5 194.5h259q3 -116 49.5 -168.5t150.5 -52.5q40 0 78.5 10.5t68.5 31t48 50t18 68.5q0 48 -18 80t-48 51.5t-68.5 28t-78.5 8.5h-78v205h58z
M1872 475v336l-258 -336h258zM2273 475v-221h-164v-254h-237v254h-524v205l573 758h188v-742h164zM2060 1999l-1147 -1999h-254l1143 1999h258z" />
    <glyph glyph-name="multiply" unicode="&#xd7;" horiz-adv-x="1434" 
d="M545 750l-500 532l188 180l488 -520l491 520l189 -180l-500 -532l500 -529l-189 -180l-491 520l-488 -520l-188 180z" />
    <glyph glyph-name="divide" unicode="&#xf7;" horiz-adv-x="1667" 
d="M623 201q0 43 17 82t45.5 69t66.5 48t79 18q43 0 81.5 -18t68 -48t46.5 -69t17 -82q0 -39 -17 -75t-45.5 -64t-66.5 -45t-79 -17q-42 0 -80.5 16t-68 43t-47 63.5t-17.5 78.5zM623 1298q0 43 17 81.5t45.5 68t66.5 46.5t79 17q43 0 81.5 -17t68 -46.5t46.5 -68t17 -81.5
q0 -41 -17 -79t-45.5 -66.5t-66.5 -45.5t-79 -17q-42 0 -80.5 17t-68 45.5t-47 66.5t-17.5 79zM1565 885v-267h-1467v267h1467z" />
    <glyph glyph-name="kokaithai" unicode="&#xe01;" horiz-adv-x="1769" 
d="M836 1430q-103 1 -180.5 -22.5t-131 -59.5t-84 -77t-39.5 -75q53 -46 86 -123.5t33 -167.5v-905h-336v909q0 34 -5.5 69t-21 68.5t-42.5 63.5t-70 53q15 68 45 135t76 128.5t109.5 114.5t146.5 92t186 61t228 22q148 0 263.5 -27t202 -75.5t146 -114.5t96.5 -144.5
t53.5 -165.5t16.5 -177v-1012h-340v1040q0 71 -22 140t-73 124t-135 89.5t-208 36.5z" />
    <glyph glyph-name="khokhaithai" unicode="&#xe02;" horiz-adv-x="1556" 
d="M569 0l-315 1409h-217v270h512l270 -1310l271 1310h348l-373 -1679h-496z" />
    <glyph glyph-name="khokhuatthai" unicode="&#xe03;" horiz-adv-x="1597" 
d="M434 1098q23 17 49 37t49.5 43.5t42 51.5t27.5 60q-31 -21 -73.5 -33t-86.5 -12q-28 0 -67.5 6t-82 23t-84 47t-74 78.5t-53 117t-20.5 162.5h320q0 -32 7 -61.5t21 -52t36 -36t51 -13.5q27 0 49 12t37.5 34t23.5 52t8 65h328v-348q0 -49 -15 -89.5t-44.5 -80.5
t-73 -83.5t-100.5 -98.5q-40 -40 -68.5 -74t-46.5 -67t-27 -69t-10 -81v-106q0 -78 20.5 -138.5t57.5 -102t88 -62.5t113 -21q57 0 106 15.5t85.5 51t57.5 92.5t21 140v1122h336v-1147q0 -147 -50 -255t-133.5 -178.5t-193 -105t-229.5 -34.5q-123 0 -235.5 36.5t-199 109
t-137.5 179.5t-51 248v78q0 102 8 170.5t32 121t67 97.5t114 99z" />
    <glyph glyph-name="khokhwaithai" unicode="&#xe04;" horiz-adv-x="1786" 
d="M492 0h-336v971q0 94 14 186t47 174.5t88 153t136.5 122t193 80.5t258.5 29q145 0 256.5 -29t193.5 -80.5t137 -122t88.5 -153t47.5 -174.5t14 -186v-971h-340v1008q0 47 -8.5 95.5t-27 94t-49 85.5t-75 70t-103 47t-134.5 17q-114 0 -190.5 -37.5t-123.5 -96.5t-67 -132
t-20 -143v-226q46 66 96.5 112.5t112 76t137 42t170.5 11.5v-295q-148 0 -247 -38.5t-159 -111.5t-85 -177t-25 -234v-168z" />
    <glyph glyph-name="khokhonthai" unicode="&#xe05;" horiz-adv-x="1802" 
d="M623 1368q-40 -21 -65.5 -60.5t-40 -87.5t-20 -100t-5.5 -100v-238q46 66 96.5 112.5t112 76t137 42t170.5 11.5v-295q-148 0 -247 -38.5t-159 -111.5t-85 -177t-25 -234v-168h-336v987q0 82 10 162.5t33.5 154.5t63.5 139.5t100 118t142 89t191 53.5l205 -221l193 221
q112 -15 196 -51.5t145.5 -88.5t102 -117.5t65 -140t34.5 -155.5t10 -164v-987h-340v1020q0 45 -7 96.5t-23 100.5t-43 89.5t-67 61.5l-209 -217q-9 -9 -20.5 -17t-36.5 -8q-22 0 -37 8t-24 17z" />
    <glyph glyph-name="khorakhangthai" unicode="&#xe06;" horiz-adv-x="1782" 
d="M418 1081q23 22 46.5 42t45.5 43.5t39.5 51t28.5 64.5q-31 -15 -64.5 -24t-71.5 -9q-28 0 -67.5 5.5t-82 22t-84 46.5t-74 77.5t-53 116t-20.5 162.5h320q0 -32 7 -61.5t21 -52t36 -36t51 -13.5q27 0 49 12t37.5 34t23.5 52t8 65h328v-344q0 -65 -20.5 -116.5t-54.5 -96
t-77.5 -84.5t-89.5 -80q-41 -35 -68.5 -63.5t-44 -60.5t-23.5 -74t-7 -105q0 -75 30.5 -146t87 -125.5t136.5 -88t180 -33.5q66 0 120.5 21t93 59t60 92.5t21.5 122.5v1122h340v-1093q0 -138 -29 -253t-98 -197t-184 -127.5t-287 -45.5q-158 0 -279.5 53t-207.5 164l-4 -180
h-324v598q0 72 3 125t11 94t22.5 73.5t37 62t55 60t76.5 68.5z" />
    <glyph glyph-name="ngonguthai" unicode="&#xe07;" horiz-adv-x="1323" 
d="M651 311q13 -34 35.5 -49.5t50.5 -15.5q44 0 69 24t25 58v1089h-233v262h569v-1298q0 -112 -34 -192t-92.5 -131t-137.5 -75t-170 -24q-90 0 -158 23t-119 65t-87 101t-62 131l-266 729h352z" />
    <glyph glyph-name="chochanthai" unicode="&#xe08;" horiz-adv-x="1622" 
d="M1487 1126q-1 -65 -19.5 -151t-49.5 -183.5t-71 -202t-83 -208t-87 -201t-83 -180.5h-422l-266 745h-226v267h488l225 -660q38 89 79.5 190t76 200.5t57 192.5t24.5 167q4 164 -82.5 246t-256.5 82q-136 0 -214.5 -62t-109.5 -201h-369q22 124 79 225t148.5 172
t216.5 109.5t281 38.5q78 0 158 -11.5t154.5 -38t139.5 -70t113 -108.5t74.5 -153.5t24.5 -204.5z" />
    <glyph glyph-name="chochingthai" unicode="&#xe09;" horiz-adv-x="1769" 
d="M115 1139q12 114 59.5 218t138 184t226.5 127.5t325 47.5q149 0 263 -28t197.5 -78t139 -119t89 -150.5t47.5 -172.5t14 -185v-983h-324l-8 188q-90 -120 -216.5 -174.5t-299.5 -54.5q-177 0 -294 47.5t-187.5 133.5t-99.5 206t-29 264v328h336v-360q0 -69 22 -126
t63 -97.5t99.5 -62.5t130.5 -22q118 0 206 37.5t146 104t86.5 157.5t28.5 197v250q0 72 -19 143.5t-66 129t-126 93t-199 35.5q-107 0 -180 -25.5t-119 -66t-69.5 -89.5t-32.5 -97h-348z" />
    <glyph glyph-name="chochangthai" unicode="&#xe0a;" horiz-adv-x="1581" 
d="M1085 668q0 94 -21 148.5t-60.5 83t-97.5 36.5t-132 10v246q98 0 164 30.5t106 91.5t57 152.5t17 212.5h340q0 -92 -13 -183t-45.5 -171.5t-88 -144.5t-140.5 -103q59 -18 101 -46.5t69.5 -63.5t43.5 -74t24 -78.5t10 -77t2 -69.5v-136q0 -98 -24 -179t-66.5 -144.5
t-101 -110.5t-127.5 -78t-146 -46t-157 -15q-123 0 -238 36.5t-204.5 109t-143 179.5t-53.5 248v136q0 64 3.5 112t11 85.5t20.5 68t31.5 59.5t43.5 59.5t58 69.5q24 31 43.5 56.5t33.5 48.5t23 46.5t14 49.5q7 50 -20.5 82.5t-77.5 32.5q-28 0 -55 -4t-59 -12.5t-70.5 -22
t-89.5 -31.5v262q51 18 99.5 32t90.5 23.5t75.5 14t53.5 4.5q95 0 172.5 -22.5t130 -68.5t77 -115t13.5 -163q-6 -46 -22 -87t-43 -85.5t-65 -97.5t-87 -123q-26 -37 -39.5 -66.5t-19.5 -58t-7.5 -58.5t-2.5 -67v-110q0 -78 23.5 -138.5t65 -102t96.5 -62.5t118 -21
q60 0 112 15.5t90.5 51t61 92.5t22.5 140v111z" />
    <glyph glyph-name="sosothai" unicode="&#xe0b;" horiz-adv-x="1683" 
d="M602 582q0 -78 23.5 -138.5t64.5 -102t95 -62.5t116 -21q60 0 112.5 15.5t91 51t61 92.5t22.5 140v107q0 89 -21.5 143.5t-60 85t-93 41t-120.5 12.5v246q91 6 154 39.5t102.5 94.5t57.5 149.5t18 203.5h336q0 -92 -13 -183t-46 -171.5t-88.5 -144.5t-139.5 -103
q60 -19 102.5 -48.5t71 -64.5t44.5 -74t24 -78t10 -77t2 -71v-132q0 -147 -53 -255t-140.5 -178.5t-200.5 -105t-233 -34.5q-123 0 -238 36.5t-204.5 109t-143 179.5t-53.5 248q0 100 3 179.5t20 147t54.5 128t106.5 123.5q14 14 32.5 34.5t37 45.5t34 51.5t23.5 52.5
q-69 -49 -163 -49q-29 0 -68.5 6t-81.5 23t-83.5 47t-74.5 78.5t-53 117t-20 162.5h319q0 -32 7.5 -61.5t22 -52t36 -36t49.5 -13.5t50 12t37.5 34t23.5 52t8 65h327v-348q0 -49 -11.5 -89.5t-36 -80t-62.5 -82t-90 -96.5q-39 -40 -60.5 -89t-32 -102t-12.5 -107t-2 -103z
" />
    <glyph glyph-name="chochoethai" unicode="&#xe0c;" horiz-adv-x="2650" 
d="M1544 737q0 -103 25 -190.5t73 -151.5t118 -100.5t161 -36.5q54 0 97 15.5t73 51t46.5 92.5t16.5 140v1122h340v-1093q0 -149 -26 -266t-88.5 -197t-165.5 -122t-256 -42q-71 0 -133 16.5t-115.5 46t-98 70t-79.5 88.5l-4 -180h-324v1040q0 69 -20 138t-67 124.5
t-123.5 90.5t-190.5 37q-91 1 -161 -19.5t-120 -54.5t-80 -76t-41 -84q62 -43 90.5 -121t28.5 -174v-627h180v-274h-516v905q0 35 -5.5 71.5t-21 70t-42.5 63.5t-70 53q15 68 45 135t75.5 128.5t107.5 114.5t141 92t176 61t213 22q141 0 251 -27t192.5 -75.5t139 -115
t92 -145t51 -166.5t15.5 -179v-271z" />
    <glyph glyph-name="yoyingthai" unicode="&#xe0d;" horiz-adv-x="2650" 
d="M1470 0q15 -55 48 -97t75.5 -70.5t90.5 -43t94 -14.5q111 0 185 38t118.5 98.5t63 135t18.5 146.5v106q-36 -45 -81.5 -85.5t-99 -71.5t-114.5 -49.5t-127 -18.5q-154 0 -257 43t-165.5 125.5t-88.5 203t-26 275.5v295q0 72 -20 143t-67 128t-123.5 92.5t-190.5 37.5
q-91 1 -161 -19.5t-120 -55t-80 -78.5t-41 -88q62 -44 90.5 -124t28.5 -180v-598h180v-274h-516v877q0 35 -5.5 72t-21 71.5t-42.5 66t-70 56.5q15 69 45 138.5t75.5 133.5t107.5 119t141 95.5t176 63.5t213 23q141 0 251 -28t192.5 -78t139 -119t92 -150.5t51 -172.5
t15.5 -185v-295q0 -86 16.5 -144.5t46.5 -94.5t73.5 -52t97.5 -16q90 0 160 38.5t118 105t73 157t25 195.5v802h340v-1331q0 -121 -12 -212.5t-32 -160.5t-45.5 -118t-53.5 -86l4 4q-51 -75 -115 -127.5t-137.5 -85.5t-155 -47.5t-165.5 -14.5q-115 0 -221 30.5t-191 92
t-143 155.5t-76 222h319z" />
    <glyph glyph-name="dochadathai" unicode="&#xe0e;" horiz-adv-x="1839" 
d="M90 0v274h164v635q0 34 -5.5 69t-21 68.5t-42.5 63.5t-70 53q15 68 45 135t76 128.5t109.5 114.5t146.5 92t185.5 61t227.5 22q148 0 263.5 -27t202 -75.5t146 -114.5t96.5 -144.5t53.5 -165.5t16.5 -177v-1590h-327q-23 37 -56 71t-81 60.5t-114 42t-155 15.5
q-144 0 -259.5 -62t-219.5 -176v324q38 40 89 74t112 59.5t131 40t147 14.5q72 0 133 -10t110 -25.5t86.5 -33.5t63.5 -33v1257q0 71 -22 140t-73 124t-135 89.5t-208 36.5q-103 1 -180 -22.5t-130.5 -59.5t-84 -77t-39.5 -75q53 -46 86 -123.5t33 -167.5v-905h-500z" />
    <glyph glyph-name="topatakthai" unicode="&#xe0f;" horiz-adv-x="1839" 
d="M1683 -578h-335q-6 29 -19.5 63.5t-35.5 64t-53 49.5t-73 20q-41 0 -72 -19.5t-51 -48.5t-30 -63.5t-10 -65.5h-283q0 22 -6.5 56t-23.5 66t-46.5 55.5t-75.5 23.5q-37 0 -62.5 -18.5t-41.5 -48t-23.5 -65t-7.5 -69.5h-270q0 120 34 206.5t89 143t122.5 83t135.5 26.5
q99 0 176 -40.5t127 -114.5q28 35 62 62t71 45t74 27t71 9q75 0 127.5 -22t89.5 -56v1249q0 71 -22 140t-73 124t-135 89.5t-208 36.5q-103 1 -180 -22.5t-130.5 -59.5t-84 -77t-39.5 -75q53 -46 86 -123.5t33 -167.5v-905h-500v274h164v635q0 34 -5.5 69t-21 68.5
t-42.5 63.5t-70 53q15 68 45 135t76 128.5t109.5 114.5t146.5 92t185.5 61t227.5 22q148 0 263.5 -27t202 -75.5t146 -114.5t96.5 -144.5t53.5 -165.5t16.5 -177v-1590z" />
    <glyph glyph-name="thothanthai" unicode="&#xe10;" horiz-adv-x="1614" 
d="M639 -590q0 29 -7 55.5t-20 46t-32 31t-43 11.5q-26 0 -45 -12t-31 -32t-17.5 -46t-5.5 -54h-254q-5 82 9 143.5t40.5 106.5t61.5 74t72 46.5t73 24.5t64 7q65 0 115.5 -22.5t85.5 -59.5q46 46 94 64t82 18q49 0 85 -13t70 -41v115h340v-463h-332q-9 71 -35.5 107.5
t-78.5 36.5q-25 0 -43.5 -11t-31 -30.5t-18.5 -45.5t-6 -57h-192zM1487 1126q-1 -64 -19.5 -149.5t-49.5 -183t-71 -202.5t-83 -208.5t-87 -201.5t-83 -181h-422l-266 750h-226v262h488l225 -656q38 88 79.5 187.5t76 199t57 192.5t24.5 167q4 164 -82.5 246t-256.5 82
q-137 0 -221 -71.5t-115 -207.5h-369q21 124 80.5 228t153 179t220.5 116.5t283 41.5q72 0 143.5 -9.5t139.5 -31.5q34 6 58.5 23.5t41 41.5t25 52t10.5 55h361q-2 -48 -14.5 -99.5t-38.5 -99t-67.5 -87t-101.5 -62.5q53 -65 81.5 -157t25.5 -216z" />
    <glyph glyph-name="thonangmonthothai" unicode="&#xe11;" horiz-adv-x="1782" 
d="M942 1561q63 46 123.5 76.5t115 49t101.5 26t82 7.5q83 0 134 -26.5t79.5 -74.5t38.5 -116t10 -151v-1352h-340v1245q0 32 -1 60.5t-5.5 49.5t-12.5 33.5t-22 12.5q-62 0 -192.5 -109.5t-323.5 -333.5q-34 -40 -60 -70.5t-45.5 -57.5t-33 -52.5t-22 -54.5t-12 -64
t-3.5 -81v-578h-340v545q0 64 1.5 112t7 86.5t17.5 71.5t32.5 66.5t51 70.5t74.5 84q52 55 90 93.5t62.5 67t38 51t18.5 46.5q-15 -8 -35.5 -16.5t-43 -15.5t-44.5 -12t-41 -5q-28 0 -67.5 5.5t-82 22t-84 46.5t-74 78t-53 117.5t-20.5 164.5h320q0 -34 7 -63.5t21 -51.5
t36 -35t51 -13q55 0 86.5 44.5t31.5 118.5h328v-118z" />
    <glyph glyph-name="thophuthaothai" unicode="&#xe12;" horiz-adv-x="2720" 
d="M1614 737q0 -103 25 -190.5t73 -151.5t118 -100.5t161 -36.5q55 0 98.5 15.5t73.5 51t45.5 92.5t15.5 140v1122h340v-1093q0 -149 -26 -266t-88.5 -197t-165.5 -122t-256 -42q-71 0 -133 16.5t-115.5 46t-98 70t-79.5 88.5v-180h-328v1069q0 43 -3 89t-15 87.5t-35.5 75
t-65.5 51.5l-213 -205q-6 -6 -21 -15t-36 -9q-22 0 -37 7.5t-25 16.5l-217 209q-34 -20 -56 -55t-35 -77t-18 -87.5t-5 -87.5v-618q55 71 124 150t134 157h-119v254h487v-234l-643 -778h-319v1036q0 79 8.5 154.5t30.5 143.5t60 127.5t96 107t139 81t190 50.5l205 -213
l192 213q112 -15 195 -47.5t143 -79.5t98.5 -107t61 -128.5t31 -145t8.5 -156.5v-299z" />
    <glyph glyph-name="nonenthai" unicode="&#xe13;" horiz-adv-x="2650" 
d="M2494 0h-327l-4 180q-36 -48 -80.5 -88.5t-97.5 -70t-114 -46t-130 -16.5q-154 0 -257 42t-165.5 122t-88.5 197t-26 266v454q0 69 -20 138t-67 124.5t-123.5 90.5t-190.5 37q-91 1 -161 -19t-120 -53.5t-80 -76t-41 -85.5q62 -43 90.5 -121t28.5 -174v-627h180v-274
h-516v905q0 35 -5.5 71.5t-21 70t-42.5 63.5t-70 53q15 68 45 135t75.5 128.5t107.5 114.5t141 92t176 61t213 22q141 0 251 -27t192.5 -75.5t139 -115t92 -145t51 -166.5t15.5 -179v-451q0 -83 16.5 -140t46.5 -92.5t73.5 -51t97.5 -15.5q90 0 160 36.5t118 100.5t73 151.5
t25 190.5v942h340v-1679z" />
    <glyph glyph-name="dodekthai" unicode="&#xe14;" horiz-adv-x="1802" 
d="M774 758h-131v258h508v-238l-676 -778h-319v1004q0 90 14 177.5t47 167t88.5 146.5t138.5 116.5t195.5 77t261.5 27.5q147 0 259 -27.5t195 -77t139 -116.5t90 -146.5t48.5 -167t14.5 -177.5v-1004h-340v1036q0 69 -17.5 139.5t-62.5 127t-124 92t-202 35.5
q-125 0 -204 -35.5t-125 -92t-63 -127t-17 -139.5v-598z" />
    <glyph glyph-name="totaothai" unicode="&#xe15;" horiz-adv-x="1815" 
d="M475 0h-319v1012q0 118 24.5 231t86 206.5t167 159.5t266.5 91l209 -209l193 209q167 -22 275 -87t170.5 -159t87 -208t24.5 -234v-1012h-336v1040q0 42 -9 91t-27.5 95.5t-46 85.5t-64.5 60l-209 -205q-10 -9 -24.5 -16.5t-33.5 -7.5q-21 0 -36.5 7.5t-24.5 16.5
l-217 209q-42 -20 -68.5 -57.5t-42.5 -84t-22 -97.5t-6 -97v-598l282 316h-131v254h512v-234z" />
    <glyph glyph-name="thothungthai" unicode="&#xe16;" horiz-adv-x="1737" 
d="M520 274h180v-274h-516v909q0 34 -5.5 69t-21 68.5t-42.5 63.5t-70 53q15 68 43.5 135t73 128.5t106 114.5t142.5 92t182.5 61t226.5 22q148 0 262.5 -27t199 -75.5t142 -114.5t93 -144.5t50.5 -165.5t15 -177v-1012h-336v1040q0 71 -20 140t-68.5 124t-131 89.5
t-206.5 36.5q-104 1 -179 -23t-125 -60t-77.5 -77.5t-36.5 -73.5q31 -21 53.5 -52t37 -68.5t21.5 -81t7 -89.5v-631z" />
    <glyph glyph-name="thothahanthai" unicode="&#xe17;" horiz-adv-x="1769" 
d="M483 1679l4 -204q89 119 216.5 182t300.5 63q177 0 294 -47.5t187.5 -133.5t99.5 -206t29 -264v-1069h-336v1102q0 69 -22 125.5t-63.5 97t-99.5 62.5t-130 22q-119 0 -206.5 -37.5t-145.5 -104t-86.5 -157.5t-28.5 -197v-913h-340v1679h327z" />
    <glyph glyph-name="thothongthai" unicode="&#xe18;" horiz-adv-x="1679" 
d="M492 844v-352q0 -68 32 -114t82 -74.5t112 -41t122 -12.5q55 0 117 10t114 37t86.5 74t34.5 121q0 40 -6 72.5t-22.5 60t-47.5 53t-81 50t-122.5 51t-171.5 57.5q-120 37 -227.5 73t-188 85.5t-126.5 121t-43 178.5q2 77 29.5 138t73.5 107.5t107 79t131 53.5t145 30.5
t149 9.5q150 0 278.5 -30.5t222 -97.5t146.5 -173t53 -256h-340q-2 75 -26.5 128t-69 86.5t-107.5 49t-141 15.5q-63 0 -120 -5.5t-100.5 -19.5t-69 -37.5t-25.5 -60.5q0 -26 25.5 -50.5t65.5 -47.5t89.5 -43t98 -36.5t91 -29t68.5 -19.5q98 -30 181 -59t150.5 -63
t119 -76.5t86 -98.5t52 -128.5t17.5 -167.5q0 -141 -58 -241t-155 -163t-222.5 -92t-260.5 -29q-137 0 -261 29.5t-218 93t-149.5 163t-55.5 239.5v352h336z" />
    <glyph glyph-name="nonuthai" unicode="&#xe19;" horiz-adv-x="1769" 
d="M1286 0l-4 205q-90 -121 -216.5 -183.5t-299.5 -62.5q-177 0 -294 47.5t-187.5 133.5t-99.5 206t-29 264v1069h336v-1101q0 -69 22 -126t63 -97.5t99.5 -62.5t130.5 -22q118 0 206 37.5t146 104t86.5 157.5t28.5 197v913h340v-1679h-328z" />
    <glyph glyph-name="bobaimaithai" unicode="&#xe1a;" horiz-adv-x="1769" 
d="M885 262q114 0 189 37.5t119.5 97t62.5 133.5t18 146v1003h340v-979q0 -94 -13.5 -185t-46 -173t-87 -151.5t-135.5 -120t-191.5 -79t-255.5 -28.5q-146 0 -257 29t-192 80.5t-135 122t-86 153.5t-45.5 175t-13.5 186v970h336v-1003q0 -72 19 -146t64 -133.5t120.5 -97
t189.5 -37.5z" />
    <glyph glyph-name="poplathai" unicode="&#xe1b;" horiz-adv-x="1769" 
d="M885 262q114 0 189 37.5t119.5 97t62.5 133.5t18 146v1737h340v-1713q0 -94 -13.5 -185t-46 -173t-87 -151.5t-135.5 -120t-191.5 -79t-255.5 -28.5q-146 0 -257 29t-192 80.5t-135 122t-86 153.5t-45.5 175t-13.5 186v970h336v-1003q0 -72 19 -146t64 -133.5t120.5 -97
t189.5 -37.5z" />
    <glyph glyph-name="phophungthai" unicode="&#xe1c;" horiz-adv-x="1896" 
d="M156 1679h557v-274h-221v-877q0 -150 36 -214t107 -64q54 0 83 28t42.5 77t15.5 114.5t2 140.5v267h336v-267q0 -75 4 -140.5t20.5 -114.5t48 -77t87.5 -28q34 0 58.5 15.5t40.5 48.5t24 86t8 128v1151h336v-1204q0 -131 -30.5 -226.5t-86 -158t-134 -93t-175.5 -30.5
q-121 0 -215.5 50t-153.5 143q-46 -99 -134 -146t-218 -47q-100 0 -181 30.5t-138 93t-88 158t-31 226.5v1204z" />
    <glyph glyph-name="fofathai" unicode="&#xe1d;" horiz-adv-x="1896" 
d="M156 1679h557v-274h-221v-877q0 -150 36 -214t107 -64q54 0 83 28t42.5 77t15.5 114.5t2 140.5v267h336v-267q0 -75 4 -140.5t20.5 -114.5t48 -77t87.5 -28q34 0 58.5 15.5t40.5 48.5t24 86t8 128v1885h336v-1938q0 -131 -30.5 -226.5t-86 -158t-134 -93t-175.5 -30.5
q-121 0 -215.5 50t-153.5 143q-46 -99 -134 -146t-218 -47q-100 0 -181 30.5t-138 93t-88 158t-31 226.5v1204z" />
    <glyph glyph-name="phophanthai" unicode="&#xe1e;" horiz-adv-x="2224" 
d="M1298 1679l263 -1192l241 1192h369l-426 -1679h-369l-270 1192l-258 -1192h-373l-426 1679h373l246 -1204l258 1204h372z" />
    <glyph glyph-name="fofanthai" unicode="&#xe1f;" horiz-adv-x="2224" 
d="M1298 1679l263 -1192l364 1926h369l-549 -2413h-369l-270 1192l-258 -1192h-373l-426 1679h373l246 -1204l258 1204h372z" />
    <glyph glyph-name="phosamphaothai" unicode="&#xe20;" horiz-adv-x="1839" 
d="M1343 1040q0 71 -22 140t-73 124t-135 89.5t-208 36.5q-103 1 -180 -22.5t-130.5 -59.5t-84 -77t-39.5 -75q53 -46 86 -123.5t33 -167.5v-905h-500v274h164v635q0 34 -5.5 69t-21 68.5t-42.5 63.5t-70 53q15 68 45 135t76 128.5t109.5 114.5t146.5 92t185.5 61t227.5 22
q148 0 263.5 -27t202 -75.5t146 -114.5t96.5 -144.5t53.5 -165.5t16.5 -177v-1012h-340v1040z" />
    <glyph glyph-name="momathai" unicode="&#xe21;" horiz-adv-x="1769" 
d="M156 0v1679h340v-913q0 -106 28.5 -197t86.5 -157.5t145.5 -104t206.5 -37.5q72 0 130 22t99.5 62.5t63.5 97.5t22 126v1101h336v-1069q0 -144 -29 -264t-99.5 -206t-187.5 -133.5t-294 -47.5q-173 0 -300.5 63t-216.5 183l-4 -205h-327z" />
    <glyph glyph-name="yoyakthai" unicode="&#xe22;" horiz-adv-x="1724" 
d="M131 1266q0 82 21.5 144.5t58 108t85 76.5t101.5 49.5t108 26.5t105 8h254v-286h-184q-23 0 -57.5 -3.5t-66.5 -18.5t-54.5 -44.5t-22.5 -81.5q0 -57 17.5 -93t47.5 -57t70 -30t86 -12h164v-283h-164q-49 -2 -89.5 -11.5t-70 -34t-45.5 -69t-16 -114.5q0 -75 31 -130.5
t83.5 -92t120.5 -54.5t142 -18q81 0 150.5 21t119.5 68.5t78.5 124t28.5 187.5v1032h336v-1089q0 -154 -56.5 -271.5t-154 -197.5t-227 -121t-275.5 -41q-91 0 -180.5 15t-170.5 46t-150 77.5t-120 110t-79.5 143.5t-28.5 177q0 64 8.5 121.5t30 106t58 87.5t91.5 66
q-58 34 -94 77t-56 90.5t-27 96t-7 93.5z" />
    <glyph glyph-name="roruathai" unicode="&#xe23;" horiz-adv-x="1491" 
d="M426 557q6 -83 29.5 -141.5t65 -95t101.5 -53.5t140 -17q46 0 98 9t95.5 33.5t72.5 66.5t29 108q0 51 -21 86.5t-64.5 65.5t-110 58.5t-156.5 63.5q-81 32 -154.5 61.5t-137 61t-115.5 68.5t-88.5 82.5t-57 103t-21.5 131.5q-1 81 22.5 147t65 117t97.5 89t121 62
t135.5 36t140.5 12q136 0 249.5 -26t196.5 -89t132 -168.5t57 -265.5h-336q-8 77 -30 129.5t-57 85t-82.5 46.5t-105.5 14q-43 0 -88.5 -10t-83 -31.5t-62 -57t-24.5 -86.5q0 -40 21 -70t65 -56.5t111.5 -53.5t159.5 -61q110 -40 195 -77.5t147 -75.5t104 -79t67.5 -88
t36.5 -101.5t11 -119.5q0 -140 -50 -236t-137.5 -155.5t-207 -86t-257.5 -26.5q-135 0 -251.5 31.5t-204 102t-141 183t-62.5 273.5h340z" />
    <glyph glyph-name="ruthai" unicode="&#xe24;" horiz-adv-x="1737" 
d="M520 274h180v-274h-516v909q0 34 -5.5 69t-21 68.5t-42.5 63.5t-70 53q15 68 43.5 135t73 128.5t106 114.5t142.5 92t182.5 61t226.5 22q148 0 262.5 -27t199 -75.5t142 -114.5t93 -144.5t50.5 -165.5t15 -177v-1557h-336v1585q0 71 -20 140t-68.5 124t-131 89.5
t-206.5 36.5q-104 1 -179 -23t-125 -60t-77.5 -77.5t-36.5 -73.5q31 -21 53.5 -52t37 -68.5t21.5 -81t7 -89.5v-631z" />
    <glyph glyph-name="lolingthai" unicode="&#xe25;" horiz-adv-x="1729" 
d="M1237 815q-31 -14 -68 -24t-76.5 -17.5t-81 -13.5t-81.5 -10q-88 -11 -173.5 -25.5t-153.5 -44.5t-110 -81.5t-42 -135.5q0 -63 27 -105.5t71 -68t98.5 -36.5t110.5 -11q46 0 95 8t101 20v-266q-68 -18 -131 -29.5t-131 -11.5q-118 0 -224.5 26t-186.5 83.5t-127.5 149.5
t-47.5 224q0 99 23.5 174t69 131t110.5 95t148.5 67.5t183.5 48.5t215 37q72 11 141 21.5t122 29.5t85.5 50t32.5 84q0 81 -30.5 130t-79.5 74.5t-109.5 33.5t-120.5 8q-80 0 -148 -16t-118 -53.5t-80.5 -98.5t-34.5 -152h-344q3 113 32 201.5t79 155t118.5 113.5t150.5 76
t174.5 42.5t191.5 13.5q78 0 156.5 -9.5t151.5 -32t136 -59.5t110 -92.5t74 -131.5t27 -175v-1212h-336v815z" />
    <glyph glyph-name="luthai" unicode="&#xe26;" horiz-adv-x="1839" 
d="M1343 1040q0 71 -22 140t-73 124t-135 89.5t-208 36.5q-103 1 -180 -22.5t-130.5 -59.5t-84 -77t-39.5 -75q53 -46 86 -123.5t33 -167.5v-905h-500v274h164v635q0 34 -5.5 69t-21 68.5t-42.5 63.5t-70 53q15 68 45 135t76 128.5t109.5 114.5t146.5 92t185.5 61t227.5 22
q148 0 263.5 -27t202 -75.5t146 -114.5t96.5 -144.5t53.5 -165.5t16.5 -177v-1557h-340v1585z" />
    <glyph glyph-name="wowaenthai" unicode="&#xe27;" horiz-adv-x="1573" 
d="M1122 840q0 153 -25 266t-72 186.5t-113.5 109.5t-149.5 36q-63 0 -117 -20.5t-95.5 -63.5t-67 -110t-31.5 -159h-340q6 141 54.5 258t133 201t202 130t261.5 46q181 0 314.5 -63.5t221 -179t130 -277.5t42.5 -360t-42.5 -360t-130 -277t-221 -177.5t-314.5 -62.5
q-144 0 -261.5 46t-202 130t-133 201t-54.5 258h340q6 -92 31.5 -158.5t67 -109.5t95.5 -63.5t117 -20.5q83 0 149.5 35.5t113.5 109t72 185.5t25 264z" />
    <glyph glyph-name="sosalathai" unicode="&#xe28;" horiz-adv-x="1786" 
d="M492 0h-336v971q0 94 14 186t47 174.5t88 153t136.5 122t193 80.5t258.5 29q95 0 174.5 -13t146.5 -36q35 2 61 19t43.5 42.5t26.5 56.5t11 62h360q-2 -49 -15.5 -104t-41 -106t-71 -93t-104.5 -65q40 -52 68 -111.5t45.5 -124.5t25 -133.5t7.5 -138.5v-971h-340v1008
q0 47 -8.5 95.5t-27 94t-49 85.5t-75 70t-103 47t-134.5 17q-114 0 -190.5 -37.5t-123.5 -96.5t-67 -132t-20 -143v-226q46 66 96.5 112.5t112 76t137 42t170.5 11.5v-295q-148 0 -247 -38.5t-159 -111.5t-85 -177t-25 -234v-168z" />
    <glyph glyph-name="sorusithai" unicode="&#xe29;" horiz-adv-x="1769" 
d="M786 782v389h320v-118h168v626h340v-626h151v-271h-151v-102q0 -90 -12 -178.5t-43 -168t-83.5 -147.5t-133.5 -117.5t-194 -77.5t-263 -28q-151 0 -264 28t-194 77.5t-133.5 117.5t-83 147.5t-42.5 168t-12 178.5v999h336v-1028q0 -71 15.5 -142t58 -129t119.5 -94
t200 -36q82 0 142.5 16.5t103.5 45.5t71 68t44 83.5t22 92.5t6 95v131h-488z" />
    <glyph glyph-name="sosuathai" unicode="&#xe2a;" horiz-adv-x="1729" 
d="M1237 823q-62 -28 -144.5 -46t-162.5 -27q-88 -9 -173.5 -23t-153.5 -43.5t-110 -81t-42 -135.5q0 -63 27 -105.5t71 -68t98.5 -36.5t110.5 -11q46 0 95 8t101 20v-270q-68 -18 -131 -27.5t-131 -9.5q-118 0 -224.5 25.5t-186.5 82t-127.5 148t-47.5 223.5
q0 112 32.5 193.5t88.5 140t131.5 96.5t161.5 63.5t178.5 40.5t182.5 28q67 9 131.5 20t114 29.5t80 48.5t30.5 78q0 81 -30.5 130t-79.5 74.5t-109.5 33.5t-120.5 8q-80 0 -148 -15.5t-118 -52t-80.5 -97t-34.5 -151.5h-344q3 113 32 201.5t79 155t118.5 113.5t150.5 76
t174.5 42.5t191.5 13.5q74 0 150.5 -9.5t148.5 -31.5q35 3 62.5 19.5t46.5 40.5t29.5 53.5t12.5 58.5h361q0 -46 -13.5 -99.5t-42 -103.5t-73 -91t-105.5 -62q34 -56 56 -125.5t22 -153.5v-1212h-336v823z" />
    <glyph glyph-name="hohipthai" unicode="&#xe2b;" horiz-adv-x="1733" 
d="M492 1679v-589l684 589h491l-373 -315q88 -35 143 -93t86 -135t42.5 -170.5t11.5 -199.5v-766h-336v799q0 60 -10.5 117t-34 104t-61 81t-91.5 46l-552 -471v-676h-336v1679h336z" />
    <glyph glyph-name="lochulathai" unicode="&#xe2c;" horiz-adv-x="2224" 
d="M1749 0h-373l-299 963l-291 -963h-372l-373 1679h377l205 -1233l286 971h348l299 -975q17 85 32 164t29.5 156.5t29.5 155.5t32 159q13 62 17 104.5t4 80.5q0 43 -10 76.5t-34 56.5t-63.5 35t-97.5 12v237q80 3 144.5 19.5t112 48t76 81t36.5 118.5h385
q-11 -89 -39.5 -157.5t-70.5 -118t-95 -81.5t-111 -49q43 -38 68.5 -86.5t35 -103t5.5 -113.5t-19 -119z" />
    <glyph glyph-name="oangthai" unicode="&#xe2d;" horiz-adv-x="1704" 
d="M102 1130q28 134 86.5 243t150.5 186t219.5 119t293.5 42q140 0 251.5 -31t196.5 -87.5t145.5 -136.5t98.5 -178t56 -212t18 -239q0 -117 -18 -227t-56.5 -207t-99 -177.5t-145 -139t-195 -90.5t-248.5 -32q-139 0 -249.5 32t-194.5 89.5t-143.5 138t-97.5 177.5
t-55.5 207.5t-17.5 228.5v122h758v-266h-410q3 -100 35 -182t86 -140.5t128 -91t161 -32.5q97 0 174.5 39t131.5 114.5t83 185.5t29 251q0 289 -105 441.5t-317 152.5q-80 0 -147.5 -19.5t-118.5 -58t-84 -94.5t-43 -128h-357z" />
    <glyph glyph-name="honokhukthai" unicode="&#xe2e;" horiz-adv-x="1696" 
d="M102 1130q28 134 86.5 243.5t150.5 187.5t219.5 120.5t293.5 42.5q80 0 155 -12t140 -37q32 3 56 18.5t40 39.5t24.5 53.5t10.5 60.5h364q-2 -48 -15.5 -98t-41 -96.5t-68.5 -85.5t-96 -64q49 -60 86 -135t61.5 -160t37 -178t12.5 -190q0 -117 -18 -227t-56.5 -207
t-99 -177.5t-145 -139t-195 -90.5t-248.5 -32q-139 0 -249.5 32t-194.5 89.5t-143.5 138t-97.5 177.5t-55.5 207.5t-17.5 228.5v118h758v-262h-410q3 -101 35 -183.5t86 -141t128 -90t161 -31.5q97 0 174.5 39t131.5 114.5t83 185.5t29 251q0 286 -105 438t-317 152
q-158 0 -257 -77t-136 -223h-357z" />
    <glyph glyph-name="paiyannoithai" unicode="&#xe2f;" horiz-adv-x="1737" 
d="M1245 0v782q-80 -68 -190 -101.5t-240 -33.5q-172 0 -302.5 39t-218 111.5t-131.5 174.5t-44 228q0 90 24 160.5t65 124t96.5 90.5t118.5 60t129.5 33.5t131.5 10.5h270v-282h-270q-111 0 -164 -49.5t-53 -151.5q0 -49 15 -97.5t53 -86.5t103 -62t165 -24q215 0 328.5 79
t113.5 248v426h336v-1679h-336z" />
    <glyph glyph-name="saraathai" unicode="&#xe30;" horiz-adv-x="1012" 
d="M156 1094v385h311v-123h401v-262h-712zM156 262v381h311v-123h401v-258h-712z" />
    <glyph glyph-name="maihanakatthai" unicode="&#xe31;" 
d="M-1057 1937v402h312v-144h806v-258h-1118z" />
    <glyph glyph-name="saraaathai" unicode="&#xe32;" horiz-adv-x="1430" 
d="M45 1126q0 95 24 175.5t67 145.5t102 114.5t128 83t146 50.5t156 17q130 0 241 -35.5t192 -108t127 -183t46 -259.5v-1126h-336v1069q0 181 -69 264.5t-201 83.5q-117 0 -189 -73t-82 -218h-352z" />
    <glyph glyph-name="saraamthai" unicode="&#xe33;" horiz-adv-x="1430" 
d="M45 1126q0 95 24 175.5t67 145.5t102 114.5t128 83t146 50.5t156 17q130 0 241 -35.5t192 -108t127 -183t46 -259.5v-1126h-336v1069q0 181 -69 264.5t-201 83.5q-117 0 -189 -73t-82 -218h-352zM-475 2224q0 -23 9 -44t25 -36.5t37 -25t44 -9.5t43.5 9.5t36.5 25
t25 36.5t9 44t-9 44t-25 36.5t-36.5 25t-43.5 9.5t-44 -9.5t-37 -25t-25 -36.5t-9 -44zM-680 2224q0 66 25 124t68.5 101.5t102 69t124.5 25.5q64 0 122 -25.5t102 -69t69.5 -101.5t25.5 -124t-25.5 -124t-69.5 -101.5t-102 -68.5t-122 -25q-66 0 -124.5 25t-102 68.5
t-68.5 101.5t-25 124z" />
    <glyph glyph-name="saraithai" unicode="&#xe34;" 
d="M-1626 1933l135 267h1335v-267h-1470z" />
    <glyph glyph-name="saraiithai" unicode="&#xe35;" 
d="M-1491 2200h1016v237h319v-504h-1470z" />
    <glyph glyph-name="sarauethai" unicode="&#xe36;" 
d="M-709 2228q0 61 23 115t63 94t93.5 63t115.5 23q61 0 115 -23t94 -63t63 -94t23 -115q0 -62 -23 -115.5t-63 -93.5t-94 -63t-115 -23h-1212l135 267h782v28zM-520 2228q0 -21 8.5 -40t23 -32.5t34 -21.5t40.5 -8q22 0 41.5 8t34 21.5t23 32.5t8.5 40q0 23 -8.5 42.5
t-23 34t-34 22.5t-41.5 8q-21 0 -40.5 -8t-34 -22.5t-23 -34t-8.5 -42.5z" />
    <glyph glyph-name="saraueethai" unicode="&#xe37;" 
d="M-1491 2200h578v237h303v-237h151v237h303v-504h-1470z" />
    <glyph glyph-name="sarauthai" unicode="&#xe38;" 
d="M-471 -819v368h-147v258h462v-626h-315z" />
    <glyph glyph-name="sarauuthai" unicode="&#xe39;" 
d="M-1217 -193h467v-229q0 -80 34 -122t106 -42q68 0 103.5 42t35.5 122v229h315v-229q0 -87 -23.5 -164.5t-77.5 -135.5t-140.5 -92t-212.5 -34q-119 0 -203.5 28.5t-140 81t-83.5 125.5t-32 162h-148v258z" />
    <glyph glyph-name="phinthuthai" unicode="&#xe3a;" 
d="M-573 -369q0 48 18 89.5t49 73t72.5 49.5t89.5 18q46 0 87 -18t71.5 -49.5t48.5 -73t18 -89.5q0 -46 -18 -87t-48.5 -71.5t-71.5 -48.5t-87 -18q-48 0 -89.5 18t-72.5 48.5t-49 71.5t-18 87z" />
    <glyph glyph-name="PUCR2005" unicode="&#xe3e;" 
 />
    <glyph glyph-name="bahtthai" unicode="&#xe3f;" horiz-adv-x="1905" 
d="M791 1999v176h311v-180q120 -6 232.5 -30.5t200.5 -80.5t141 -151t53 -242q0 -146 -52.5 -250.5t-160.5 -175.5q72 -31 127.5 -78.5t94 -108t58 -132.5t19.5 -152q0 -74 -19 -146.5t-56 -138.5t-92 -122.5t-127 -98t-161 -65t-193 -23.5h-65v-188h-311v188h-611v1999h611
zM1462 606q0 77 -31 127.5t-81.5 81t-115.5 43t-132 14.5v-573h28q80 0 142 21t104 60.5t64 96.5t22 129zM791 299v573h-259v-573h259zM791 1176v520h-259v-520h259zM1380 1438q0 83 -19.5 133t-55.5 77.5t-87.5 36.5t-115.5 11v-516q147 15 212.5 79.5t65.5 178.5z" />
    <glyph glyph-name="saraethai" unicode="&#xe40;" horiz-adv-x="717" 
d="M188 0v1679h340v-1679h-340z" />
    <glyph glyph-name="saraaethai" unicode="&#xe41;" horiz-adv-x="1282" 
d="M188 0v1679h340v-1679h-340zM754 0v1679h340v-1679h-340z" />
    <glyph glyph-name="saraothai" unicode="&#xe42;" horiz-adv-x="852" 
d="M242 1933q0 58 -20 104t-54.5 77.5t-81 48t-98.5 16.5l65 258h819l152 -270h-524q40 -47 59 -105.5t19 -119.5v-1668h176v-274h-512v1933z" />
    <glyph glyph-name="saraaimaimuanthai" unicode="&#xe43;" horiz-adv-x="852" 
d="M578 274h176v-274h-512v1585q0 69 5.5 122.5t21.5 100t45 89t75 90.5q12 12 33 30.5t41 39.5t34.5 43t14.5 42q0 18 -6 36.5t-20.5 33.5t-39 24t-61.5 9q-40 0 -70.5 -18t-51.5 -51t-31.5 -80t-10.5 -105h-315q0 133 39.5 231t106 162.5t153 95.5t180.5 31
q84 0 162.5 -19.5t139 -61.5t96.5 -109t36 -162q0 -53 -16.5 -92.5t-43 -74t-59.5 -68t-65 -73.5q-21 -26 -33 -59t-17 -69t-6 -71.5t-1 -66.5v-1311z" />
    <glyph glyph-name="saraaimaimalaithai" unicode="&#xe44;" horiz-adv-x="852" 
d="M578 274h176v-274h-512v1942q0 61 18.5 119.5t58.5 105.5h-524l152 270h819l65 -258q-52 0 -98 -16.5t-80.5 -48t-54.5 -77.5t-20 -104v-1659z" />
    <glyph glyph-name="lakkhangyaothai" unicode="&#xe45;" horiz-adv-x="1430" 
d="M45 1126q0 95 24 175.5t67 145.5t102 114.5t128 83t146 50.5t156 17q130 0 241 -35.5t192 -108t127 -183t46 -259.5v-1671h-336v1614q0 181 -69 264.5t-201 83.5q-117 0 -189 -73t-82 -218h-352z" />
    <glyph glyph-name="maiyamokthai" unicode="&#xe46;" horiz-adv-x="1638" 
d="M446 1061q2 -37 10 -73t26.5 -64.5t50.5 -46t81 -17.5h70v-295h-70q-101 0 -192.5 28t-160.5 87.5t-109.5 152.5t-40.5 224q0 123 22 229t80 189t159 141t259 84l176 -184l160 180q117 -10 200.5 -42t141 -81t92 -112.5t52.5 -136.5t24 -153t6 -163v-1549h-340v1581
q0 46 -1.5 99t-11 100t-29.5 82.5t-57 46.5l-180 -188q-9 -10 -24 -17.5t-33 -7.5q-22 0 -37 7.5t-25 17.5l-180 184q-34 -21 -58 -53t-38.5 -71t-20 -84.5t-2.5 -94.5z" />
    <glyph glyph-name="maitaikhuthai" unicode="&#xe47;" 
d="M-1184 2322q0 -12 3.5 -30.5t14 -36.5t30 -30.5t51.5 -12.5q52 0 78.5 39.5t23.5 107.5h229q-3 -68 21.5 -107.5t77.5 -39.5q27 0 44.5 11t26.5 30.5t10 46.5t-4 59h254q14 -107 -5 -183t-60.5 -124.5t-101.5 -71t-127 -22.5q-45 0 -83 11.5t-69 30.5t-55 44t-39 53
q-17 -28 -44.5 -53t-62 -44t-74.5 -30.5t-81 -11.5q-103 0 -171.5 34.5t-110 88t-58.5 117.5t-17 124q0 102 36.5 174.5t98 119.5t142.5 69t170 22h819v-241h-791q-60 0 -95 -15t-53 -37t-23 -47t-5 -45z" />
    <glyph glyph-name="maiekthai" unicode="&#xe48;" 
d="M-471 3117h311v-491h-311v491z" />
    <glyph glyph-name="maithothai" unicode="&#xe49;" 
d="M-778 2621v250h-156v250h422v-250q81 1 145 21.5t108.5 54.5t67.5 78.5t23 95.5h291q0 -97 -41 -187t-124 -159.5t-208.5 -111.5t-294.5 -42h-233z" />
    <glyph glyph-name="maitrithai" unicode="&#xe4a;" 
d="M-315 2621q0 19 -2 50t-8 61t-16.5 52t-27.5 22t-27.5 -19t-16 -47t-7.5 -60.5t-2 -58.5h-217q0 26 -2 58.5t-7 60.5t-15 47t-25 19q-17 0 -27.5 -22t-16 -52t-7.5 -61t-2 -50h-250q-8 111 12 192.5t58.5 135.5t90.5 80.5t109 26.5q59 0 106.5 -28t82.5 -75
q30 47 83.5 75t112.5 28q39 0 74.5 -11t65 -33.5t51.5 -56.5t34 -80q17 19 31 45.5t24.5 58t16.5 66t6 68.5h266q0 -50 -12.5 -103.5t-34.5 -105t-53 -99t-68 -85.5t-79.5 -64t-87.5 -35h-213z" />
    <glyph glyph-name="maichattawathai" unicode="&#xe4b;" 
d="M-164 2830v-209h-303v209h-238v242h238v205h303v-205h238v-242h-238z" />
    <glyph glyph-name="thanthakhatthai" unicode="&#xe4c;" 
d="M-82 2671q-151 0 -231 -58t-80 -184h-303q0 115 42.5 206t122 155t193 98.5t256.5 36.5v-254z" />
    <glyph glyph-name="nikhahitthai" unicode="&#xe4d;" 
d="M-475 2224q0 -23 9 -44t25 -36.5t37 -25t44 -9.5t43.5 9.5t36.5 25t25 36.5t9 44t-9 44t-25 36.5t-36.5 25t-43.5 9.5t-44 -9.5t-37 -25t-25 -36.5t-9 -44zM-680 2224q0 66 25 124t68.5 101.5t102 69t124.5 25.5q64 0 122 -25.5t102 -69t69.5 -101.5t25.5 -124
t-25.5 -124t-69.5 -101.5t-102 -68.5t-122 -25q-66 0 -124.5 25t-102 68.5t-68.5 101.5t-25 124z" />
    <glyph glyph-name="yamakkanthai" unicode="&#xe4e;" 
d="M4 2396q-69 0 -111.5 -10.5t-66 -31.5t-31.5 -51.5t-8 -70.5v-69h-82q-54 0 -88 -15.5t-53.5 -45t-27 -71.5t-7.5 -94h-303q0 80 17.5 152.5t54 131.5t94 102.5t137.5 64.5q14 58 48.5 107t92.5 84.5t140.5 55t193.5 19.5v-258z" />
    <glyph glyph-name="fongmanthai" unicode="&#xe4f;" horiz-adv-x="2077" 
d="M147 836q0 122 32 234.5t89.5 210t139 178t180 137.5t212 88.5t236.5 31.5q121 0 233 -31.5t209.5 -88.5t177.5 -137.5t137 -178t88.5 -210t31.5 -234.5t-31.5 -234.5t-88.5 -210.5t-137 -178.5t-177.5 -137.5t-209.5 -88.5t-233 -31.5q-123 0 -236.5 31.5t-212 88.5
t-180 137.5t-139 178.5t-89.5 210.5t-32 234.5zM565 844q0 94 37.5 178t101.5 147.5t149.5 100.5t182.5 37q94 0 177.5 -37t146 -100.5t99 -147.5t36.5 -178q0 -97 -36.5 -182t-99 -148.5t-146 -100t-177.5 -36.5q-97 0 -182.5 36.5t-149.5 100t-101.5 148.5t-37.5 182z
M782 844q0 -54 19 -100.5t53 -80.5t80.5 -53.5t101.5 -19.5q51 0 95 19.5t76.5 53.5t51.5 80.5t19 100.5q0 51 -19 95.5t-51.5 78t-76.5 53t-95 19.5q-55 0 -101.5 -19.5t-80.5 -53t-53 -78t-19 -95.5zM393 844q0 -132 50 -249t136.5 -204.5t204 -138.5t252.5 -51
q87 0 168 23t151.5 65.5t128.5 101t99.5 130t64.5 153.5t23 170t-23 169.5t-64.5 152t-99.5 128t-128.5 99t-151.5 64t-168 22.5q-135 0 -252.5 -49.5t-204 -136t-136.5 -202t-50 -247.5z" />
    <glyph glyph-name="zerothai" unicode="&#xe50;" horiz-adv-x="1823" 
d="M1704 733q0 -206 -62.5 -351.5t-170 -237.5t-251.5 -134.5t-307 -42.5q-108 0 -209.5 18.5t-189.5 58t-161 100.5t-125 146.5t-80.5 195.5t-28.5 247q0 181 54.5 321t157 235.5t249.5 144.5t333 49q184 0 331 -49t249 -144.5t156.5 -235.5t54.5 -321zM1368 717
q0 132 -36 224.5t-98 151t-144.5 85t-176.5 26.5q-93 0 -176.5 -26.5t-146 -85t-99 -151t-36.5 -224.5q0 -102 32.5 -188t92.5 -149t144.5 -98.5t188.5 -35.5q105 0 189 35.5t143 98.5t91 149t32 188z" />
    <glyph glyph-name="onethai" unicode="&#xe51;" horiz-adv-x="1810" 
d="M815 -29q-94 0 -194 6.5t-203 31.5t-205.5 75t-200.5 137l267 217q52 -58 112 -96.5t127 -61.5t139.5 -32.5t149.5 -9.5q118 0 218 35t172.5 102.5t113.5 167.5t41 231q0 98 -28 180t-84.5 141.5t-142 92.5t-200.5 33q-94 0 -171.5 -22.5t-133 -60.5t-86.5 -87t-31 -101
q0 -48 22.5 -93.5t73.5 -77.5t134 -45.5t204 3.5v-245q-65 -16 -115 -20.5t-94 -4.5q-117 0 -220.5 33t-181 93.5t-122.5 145t-45 187.5q0 101 30 182t83.5 143.5t125.5 107t156.5 73t177 42t185.5 13.5q111 0 214.5 -17t193 -53t163 -92.5t126 -135t81.5 -181t29 -230.5
q0 -181 -60.5 -330t-174 -255t-277 -164t-369.5 -58z" />
    <glyph glyph-name="twothai" unicode="&#xe52;" horiz-adv-x="2068" 
d="M139 1196q0 111 -35 160t-112 49l53 283q95 0 173.5 -26.5t134.5 -81.5t87 -138t31 -197v-606q0 -78 37.5 -146.5t112.5 -118.5t187 -79t261 -29q140 0 240.5 27t165.5 71.5t96 102t31 119.5v405q0 43 -10.5 76.5t-29.5 57.5t-45.5 39.5t-58.5 23.5l-221 -197l-221 185
q-22 -2 -43 -13.5t-38 -33.5t-27.5 -54.5t-10.5 -75.5v-90q0 -41 2 -82.5t12.5 -75t32 -54.5t60.5 -21h126v-262h-155q-97 0 -164.5 24.5t-112.5 64.5t-70.5 91.5t-38 105.5t-16 106.5t-4.5 94.5v78q0 94 35.5 178t101.5 150.5t159 111.5t208 60l164 -140l147 140
q115 -6 215.5 -43t174.5 -97.5t116.5 -142t42.5 -176.5v-385q0 -115 -28.5 -208t-80 -166t-123 -126t-157 -87.5t-182.5 -51t-199 -16.5h-164q-206 0 -366 48.5t-269.5 138.5t-167 217t-57.5 284v528z" />
    <glyph glyph-name="threethai" unicode="&#xe53;" horiz-adv-x="1855" 
d="M676 1167q-34 -8 -71 -30t-67.5 -67t-50.5 -116t-20 -176v-110q0 -69 2 -140t18 -128.5t51 -93.5t101 -36q28 0 89.5 4t135.5 17v-279q-24 -8 -65 -14.5t-86.5 -10.5t-90.5 -5t-77 2q-103 13 -174 51.5t-117 93.5t-71 122.5t-36.5 138.5t-13.5 141.5t-2 132.5v110
q0 172 40.5 298t117 211.5t188 133t252.5 62.5l201 -172l213 172q150 -9 260 -58t181 -125.5t105.5 -175t34.5 -207.5v-913h-335v913q0 48 -17.5 93t-46 80t-64.5 57t-73 24l-262 -213z" />
    <glyph glyph-name="fourthai" unicode="&#xe54;" horiz-adv-x="1855" 
d="M901 1167q-100 0 -180 -21t-136.5 -62t-87 -101.5t-30.5 -138.5v-193q0 -78 23 -145.5t70.5 -117t121 -77.5t174.5 -28h21q-22 21 -41.5 47.5t-34 57t-23 64t-8.5 68.5q0 23 4 58.5t19.5 74.5t47 78t87 70.5t139 51t203.5 19.5v-282q-65 0 -100.5 -11t-52 -26t-20 -32
t-3.5 -29q0 -42 18 -79.5t46 -66.5t62 -46t66 -17h455v-283h-922q-136 0 -240 28.5t-180.5 76.5t-128 112t-82.5 135t-44 144.5t-13 142.5v160q0 167 56 290.5t160.5 204.5t252 120.5t330.5 39.5h282q57 0 93 16.5t56.5 46.5t28 71.5t7.5 90.5h344q0 -59 -8.5 -120t-30 -118
t-58.5 -107t-94 -87t-137.5 -58.5t-187.5 -21.5h-324z" />
    <glyph glyph-name="fivethai" unicode="&#xe55;" horiz-adv-x="1855" 
d="M852 1483q0 -47 27.5 -77t70.5 -30q50 0 78.5 30t28.5 77q0 49 -28.5 77.5t-78.5 28.5q-43 0 -70.5 -28.5t-27.5 -77.5zM1741 283v-283h-922q-136 0 -240 28.5t-180.5 77.5t-128 113.5t-82.5 136.5t-44 146.5t-13 144.5v160q0 141 38 246t106.5 180t163 123.5t208.5 77.5
q-3 9 -3.5 22.5t-0.5 26.5q0 61 24.5 116.5t66 96.5t97.5 65.5t119 24.5q69 0 127 -24.5t100 -65.5t65.5 -96.5t23.5 -116.5v-21q38 9 63.5 29t40.5 48t21 63.5t6 76.5h344q0 -60 -8.5 -121t-30 -117.5t-58.5 -105.5t-94 -85.5t-137.5 -57.5t-187.5 -21h-307
q-100 0 -183 -17.5t-142.5 -56.5t-92.5 -100.5t-33 -148.5v-193q0 -77 23 -144.5t70.5 -118t121 -80t174.5 -29.5h21q-22 21 -41.5 47.5t-34 57t-23 64t-8.5 68.5q0 23 4 58.5t19.5 74.5t47 78t87 70.5t139 51t203.5 19.5v-282q-65 0 -100.5 -11t-52 -26t-20 -32t-3.5 -29
q0 -42 18 -79.5t46 -66.5t62 -46t66 -17h455z" />
    <glyph glyph-name="sixthai" unicode="&#xe56;" horiz-adv-x="1880" 
d="M471 1356q45 21 99.5 42t120 37.5t142.5 28.5t166 15q147 4 261.5 -21t199.5 -72.5t143.5 -114t94 -146t51.5 -168t16 -179.5v-102q0 -94 -23 -183.5t-68.5 -168.5t-113.5 -144t-158.5 -111t-203.5 -69.5t-248 -19.5q-150 4 -274.5 40.5t-214 101t-138.5 155t-49 202.5
q0 106 36 183t102.5 126.5t160.5 73t209 23.5h140v-258h-127q-57 0 -93 -12.5t-56.5 -34t-28 -50.5t-7.5 -63q0 -42 26 -78.5t73 -64t112.5 -44.5t145.5 -18q89 -2 171.5 24t146.5 78t102 129t38 179v98q0 109 -28.5 189t-81.5 132.5t-129.5 77t-173.5 23.5
q-78 -2 -157 -15.5t-160 -41.5t-165.5 -72t-173.5 -105l-315 504l266 156z" />
    <glyph glyph-name="seventhai" unicode="&#xe57;" horiz-adv-x="2200" 
d="M1704 1245q0 112 31 194.5t87 136.5t134.5 80.5t173.5 26.5l49 -282q-38 0 -64.5 -11.5t-43 -36.5t-24 -64.5t-7.5 -96.5v-447q0 -153 -41.5 -283t-126 -229t-214 -162t-306.5 -83l-254 176q67 66 104.5 126.5t55 119.5t21 120t3.5 129v123q0 88 -14.5 153.5t-38.5 111.5
t-56 73.5t-67 38.5l-213 -217l-221 225q-32 -8 -67.5 -34t-65 -73.5t-49 -118t-19.5 -167.5v-106q0 -33 1 -74t6.5 -83t16.5 -82.5t31 -72t50.5 -50.5t74.5 -19q9 0 27.5 1.5t42.5 3.5t51.5 5t54.5 6l4 -283q-21 -6 -53.5 -12.5t-70.5 -11t-79 -4.5t-79 8q-98 20 -167 60.5
t-115 94t-72.5 117t-39.5 129.5t-16.5 132.5t-3.5 125.5v111q0 163 40 287.5t116.5 212.5t187.5 139t254 66l156 -160l155 160q166 -19 274.5 -78.5t172.5 -151t89.5 -210t25.5 -253.5v-114l-4.5 -76.5t-8 -87.5t-14.5 -89.5t-23 -82.5q37 28 65 71t46.5 95t27.5 108.5
t9 110.5v528z" />
    <glyph glyph-name="eightthai" unicode="&#xe58;" horiz-adv-x="1851" 
d="M844 1159q-97 0 -166.5 -26.5t-114.5 -71t-66.5 -101t-21.5 -116.5v-303q0 -46 16.5 -89.5t43.5 -78.5t61 -59t68 -31l274 217l266 -217q37 1 69 14t56 40.5t37.5 73t13.5 113.5q0 29 -4.5 58.5t-18 54.5t-39.5 43.5t-69 24.5q-12 3 -39.5 3.5t-58.5 0.5v258h123
q97 -5 167.5 -26t119 -53.5t78.5 -74.5t46 -89.5t21.5 -98.5t5.5 -101q0 -134 -32.5 -235.5t-101.5 -170t-177 -103.5t-258 -35l-205 163l-205 -163q-146 9 -257 57t-186 123.5t-113 173.5t-38 207v258q0 152 46.5 273.5t139 206t229.5 130t318 45.5h381q55 0 91 16.5
t57 46.5t29 71.5t8 90.5h340q0 -58 -8.5 -119.5t-29.5 -119t-58 -109t-94 -89.5t-136.5 -60.5t-185.5 -22.5h-422z" />
    <glyph glyph-name="ninethai" unicode="&#xe59;" horiz-adv-x="1884" 
d="M1360 1479q54 0 85.5 13t48 38t21.5 62.5t5 86.5h335q0 -59 -6 -118t-23.5 -113.5t-50 -101t-85 -81t-129 -54t-181.5 -19.5h-24q-12 0 -28 -9t-32.5 -22.5t-32.5 -30.5t-30 -32l536 -1098h-352l-479 987q-50 99 -110 152t-144 53q-46 0 -85.5 -19t-69 -66t-46 -126
t-16.5 -199v-151q1 -36 4.5 -76.5t12 -80t23 -76t37 -64t54 -44t74.5 -16.5q21 0 60.5 3.5t82.5 9.5l45 -275q-23 -6 -57.5 -11.5t-73.5 -9.5t-79.5 -5t-76.5 2q-101 11 -173 46.5t-121.5 87.5t-78.5 116.5t-44.5 135t-20 142.5t-4.5 139v119q0 174 28 305.5t93.5 220.5
t172 134t263.5 45q29 0 63.5 -0.5t71 -4t72.5 -11t68 -21.5q27 -19 54.5 -41.5t55.5 -57.5l111 107q12 12 31 20.5t47 8.5h98z" />
    <glyph glyph-name="angkhankhuthai" unicode="&#xe5a;" horiz-adv-x="2306" 
d="M1245 0v782q-80 -68 -190 -101.5t-240 -33.5q-172 0 -302.5 39t-218 111.5t-131.5 174.5t-44 228q0 90 24 160.5t65 124t96.5 90.5t118.5 60t129.5 33.5t131.5 10.5h270v-282h-270q-111 0 -164 -49.5t-53 -151.5q0 -49 15 -97.5t53 -86.5t103 -62t165 -24q215 0 328.5 79
t113.5 248v426h336v-1679h-336zM1815 1679h335v-1679h-335v1679z" />
    <glyph glyph-name="khomutthai" unicode="&#xe5b;" horiz-adv-x="3600" 
d="M2863 856q-29 -35 -59.5 -81.5t-62 -100.5t-62.5 -113t-62 -119q-62 130 -119 232.5t-110 185.5q-56 -80 -120.5 -216t-129.5 -325q-59 174 -120.5 308t-116.5 221q-26 -183 -104.5 -338.5t-196.5 -268.5t-269 -177t-323 -64q-136 0 -251.5 35t-209.5 96.5t-165.5 145
t-120 180t-73 202.5t-24.5 213q0 94 21.5 191t64 188t104.5 170.5t143.5 138.5t181.5 93.5t218 34.5q113 0 204 -27t161.5 -74t121.5 -111.5t84 -140t48.5 -159t15.5 -168.5l-315 -4q0 175 -74.5 265t-212.5 99q-102 0 -181.5 -40.5t-135 -110t-84.5 -163.5t-29 -202
q0 -101 38 -195.5t107 -167.5t164.5 -117t210.5 -44q114 0 203.5 36t157 100.5t115 153.5t77.5 194t43.5 222.5t13.5 239.5l221 123q46 -49 88 -101t79 -102.5t68.5 -97t55.5 -84.5q26 37 58 84t66 96.5t67.5 97.5t62.5 86q29 -45 61 -93.5t63.5 -97t59.5 -94t50 -83.5
l127 176h536l213 -328h-643z" />
    <glyph glyph-name="ZWSP" unicode="&#x200b;" 
 />
    <glyph glyph-name="endash" unicode="&#x2013;" horiz-adv-x="1405" 
d="M1405 938v-315h-1405v315h1405z" />
    <glyph glyph-name="emdash" unicode="&#x2014;" horiz-adv-x="2777" 
d="M2777 938v-315h-2777v315h2777z" />
    <glyph glyph-name="quoteleft" unicode="&#x2018;" horiz-adv-x="819" 
d="M217 1241v340q0 91 22.5 172t69.5 142t119 97t170 36v-193q-43 0 -74 -18.5t-51 -48.5t-29.5 -69t-9.5 -81h164v-377h-381z" />
    <glyph glyph-name="quoteright" unicode="&#x2019;" horiz-adv-x="819" 
d="M602 2028v-340q0 -91 -22.5 -172t-69.5 -142t-119 -97t-170 -36v193q43 0 74 18.5t51 48.5t29.5 69t9.5 81h-164v377h381z" />
    <glyph glyph-name="quotedblleft" unicode="&#x201c;" horiz-adv-x="1278" 
d="M188 1241v340q0 91 22.5 172t69.5 142t119 97t170 36v-193q-43 0 -73.5 -18.5t-50.5 -48.5t-29.5 -69t-9.5 -81h163v-377h-381zM709 1241v340q0 91 22.5 172t69.5 142t118.5 97t170.5 36v-193q-43 0 -74 -18.5t-51 -48.5t-29.5 -69t-9.5 -81h164v-377h-381z" />
    <glyph glyph-name="quotedblright" unicode="&#x201d;" horiz-adv-x="1278" 
d="M1090 2028v-340q0 -91 -22.5 -172t-69.5 -142t-119 -97t-170 -36v193q43 0 73.5 18.5t50.5 48.5t29.5 69t9.5 81h-163v377h381zM569 2028v-340q0 -91 -22.5 -172t-69.5 -142t-118.5 -97t-170.5 -36v193q43 0 74 18.5t51 48.5t29.5 69t9.5 81h-164v377h381z" />
    <glyph glyph-name="bullet" unicode="&#x2022;" horiz-adv-x="1090" 
d="M78 860q0 88 36.5 168t99.5 141t147.5 97.5t179.5 36.5q97 0 182.5 -36.5t149.5 -97.5t101.5 -141t37.5 -168q0 -94 -37.5 -176t-101.5 -143t-149.5 -96t-182.5 -35q-95 0 -179.5 35t-147.5 96t-99.5 143t-36.5 176z" />
    <glyph glyph-name="Euro" unicode="&#x20ac;" horiz-adv-x="2224" 
d="M1753 1356q-20 103 -63 176.5t-106.5 120.5t-145.5 69.5t-181 22.5q-114 0 -205.5 -32t-162 -87.5t-120.5 -131t-81 -163.5h586v-246h-631q-3 -18 -3.5 -36.5t-0.5 -36.5q0 -25 0.5 -49.5t3.5 -49.5h631v-245h-582q31 -91 81 -166.5t120.5 -129.5t162.5 -84t206 -30
q120 0 212 39.5t156 110t100 168.5t44 215h352q-20 -200 -86 -354.5t-177 -259.5t-266.5 -159.5t-355.5 -54.5q-194 0 -347.5 51.5t-268 144.5t-189.5 222.5t-112 286.5h-258v245h221v78v94h-226v246h267q41 157 121 288t197 225.5t271 147t345 52.5q166 0 308.5 -43
t253.5 -129t186 -215t104 -301h-361v0z" />
    <glyph glyph-name="trademark" unicode="&#x2122;" horiz-adv-x="2753" 
d="M2347 786v811l-315 -811h-168l-324 811v-811h-254v1213h344l320 -803l311 803h348v-1213h-262zM758 1778v-992h-254v992h-361v221h975v-221h-360z" />
    <glyph glyph-name="uni25CC" unicode="&#x25cc;" horiz-adv-x="1868" 
d="M569 455l66 159q22 -34 47 -61.5t59 -48.5zM934 1303l74 -156q-41 9 -83 7t-73 -11zM934 303l-74 152q37 -10 68.5 -9.5t75.5 13.5zM1434 803l-156 -70q12 34 12.5 70.5t-8.5 77.5zM434 807l160 78q-6 -37 -7.5 -76.5t7.5 -79.5zM598 1159l164 -57q-43 -22 -73.5 -47
t-49.5 -56zM1274 451l-152 49q34 21 59.5 46t47.5 56zM1298 1159l-69 -164q-22 34 -51 61.5t-60 49.5z" />
    <glyph glyph-name="thothannobasethai" unicode="&#xf700;" horiz-adv-x="1614" 
d="M1487 1126q-1 -64 -19.5 -149.5t-49.5 -183t-71 -202.5t-83 -208.5t-87 -201.5t-83 -181h-422l-266 750h-226v262h488l225 -656q38 88 79.5 187.5t76 199t57 192.5t24.5 167q4 164 -82.5 246t-256.5 82q-137 0 -221 -71.5t-115 -207.5h-369q21 124 80.5 228t153 179
t220.5 116.5t283 41.5q72 0 143.5 -9.5t139.5 -31.5q34 6 58.5 23.5t41 41.5t25 52t10.5 55h361q-2 -48 -14.5 -99.5t-38.5 -99t-67.5 -87t-101.5 -62.5q53 -65 81.5 -157t25.5 -216z" />
    <glyph glyph-name="saraileftthai" unicode="&#xf701;" 
d="M-1823 1933l131 267h1037v-267h-1168z" />
    <glyph glyph-name="saraiileftthai" unicode="&#xf702;" 
d="M-1692 2200h717v237h320v-504h-1168z" />
    <glyph glyph-name="saraueleftthai" unicode="&#xf703;" 
d="M-1217 2228q0 61 23 115t63 94t94 63t115 23t115 -23t94 -63t63 -94t23 -115q0 -62 -23 -115.5t-63 -93.5t-94 -63t-115 -23h-901l135 267h471v28zM-1028 2228q0 -21 8.5 -40t23 -32.5t34 -21.5t40.5 -8q22 0 41.5 8t34 21.5t23 32.5t8.5 40q0 23 -8.5 42.5t-23 34
t-34 22.5t-41.5 8q-21 0 -40.5 -8t-34 -22.5t-23 -34t-8.5 -42.5z" />
    <glyph glyph-name="saraueeleftthai" unicode="&#xf704;" 
d="M-1688 2200h275v237h303v-237h152v237h303v-504h-1168z" />
    <glyph glyph-name="maieklowleftthai" unicode="&#xf705;" 
d="M-1065 2445h328v-516h-328v516z" />
    <glyph glyph-name="maitholowleftthai" unicode="&#xf706;" 
d="M-1401 1942v245h-139v246h405v-246q81 1 139 21.5t94.5 54t53.5 77.5t17 93h294q0 -95 -35.5 -184t-111.5 -157t-194.5 -109t-284.5 -41h-238z" />
    <glyph glyph-name="maitrilowleftthai" unicode="&#xf707;" 
d="M-1032 1946q0 34 -3.5 70t-11 66t-19 49t-28.5 19q-15 0 -26.5 -18.5t-19 -48t-11.5 -66t-4 -71.5h-188q0 34 -2.5 70t-9.5 66t-18 49t-28 19q-20 0 -32 -19t-18.5 -49t-8.5 -66t-2 -70h-234q-6 114 13.5 198.5t56 140.5t85.5 83.5t103 27.5q65 0 112.5 -28.5t72.5 -77.5
q13 20 34.5 39t47 34t54 24t56.5 9q35 0 69 -13t62.5 -37.5t51 -61t34.5 -84.5q17 18 27.5 43.5t16 54.5t7.5 60.5t2 62.5h254q0 -86 -22.5 -165.5t-62.5 -143t-95 -107.5t-119 -59h-196z" />
    <glyph glyph-name="maichattawalowleftthai" unicode="&#xf708;" 
d="M-864 2142v-209h-307v209h-234v242h234v205h307v-205h233v-242h-233z" />
    <glyph glyph-name="thanthakhatlowleftthai" unicode="&#xf709;" 
d="M-696 2179q-151 0 -231.5 -58t-80.5 -184h-303q0 115 42.5 206.5t122 155.5t193.5 98t257 36v-254z" />
    <glyph glyph-name="maieklowrightthai" unicode="&#xf70a;" 
d="M-487 2445h327v-516h-327v516z" />
    <glyph glyph-name="maitholowrightthai" unicode="&#xf70b;" 
d="M-971 1942v249h-143v250h422v-250q81 1 144 21.5t105.5 54.5t64.5 78.5t22 95.5h299q0 -97 -41 -187t-124 -159.5t-208.5 -111t-294.5 -41.5h-246z" />
    <glyph glyph-name="maitrilowrightthai" unicode="&#xf70c;" 
d="M-651 1942q0 30 -4 66.5t-12.5 68t-22 52.5t-31.5 21q-20 0 -33.5 -20.5t-21.5 -51.5t-11.5 -67.5t-3.5 -68.5h-217q0 32 -3.5 68.5t-11 67.5t-20 51.5t-30.5 20.5q-20 0 -33.5 -21.5t-21.5 -53.5t-11.5 -68t-3.5 -65h-262q-8 120 14.5 207.5t64 145t98 85.5t118.5 28
q68 0 121.5 -28.5t87.5 -77.5q17 20 41 39t52.5 34t60 24t63.5 9q40 0 78 -13t71 -38t58 -62.5t39 -86.5q15 18 30.5 44t28 56.5t20 63.5t7.5 65h291q0 -84 -30 -166.5t-80.5 -150.5t-117.5 -115.5t-141 -62.5h-221z" />
    <glyph glyph-name="maichattawalowrightthai" unicode="&#xf70d;" 
d="M-164 2146v-213h-311v213h-242v250h242v209h311v-209h242v-250h-242z" />
    <glyph glyph-name="thanthakhatlowrightthai" unicode="&#xf70e;" 
d="M-82 2179q-151 0 -231 -58t-80 -184h-303q0 115 42.5 206.5t122 155.5t193 98t256.5 36v-254z" />
    <glyph glyph-name="yoyingnobasethai" unicode="&#xf70f;" horiz-adv-x="2650" 
d="M1204 1016q0 72 -20 143t-67 128t-123.5 92.5t-190.5 37.5q-91 1 -161 -19.5t-120 -55t-80 -78.5t-41 -88q62 -44 90.5 -124t28.5 -180v-598h180v-274h-516v877q0 35 -5.5 72t-21 71.5t-42.5 66t-70 56.5q15 69 45 138.5t75.5 133.5t107.5 119t141 95.5t176 63.5t213 23
q141 0 251 -28t192.5 -78t139 -119t92 -150.5t51 -172.5t15.5 -185v-401q0 -81 25.5 -143t68.5 -104t99.5 -63.5t117.5 -21.5q60 0 114 19.5t95.5 60t65.5 103.5t24 149v1097h340v-1126q0 -152 -53.5 -264t-143 -185.5t-204.5 -109t-238 -35.5q-127 0 -244.5 38t-208 113
t-144.5 186t-54 257v463z" />
    <glyph glyph-name="maihanakatleftthai" unicode="&#xf710;" 
d="M-1233 1937v402h311v-144h1086v-258h-1397z" />
    <glyph glyph-name="nikhahitleftthai" unicode="&#xf711;" 
d="M-1085 2224q0 -23 9 -44t25 -36.5t36.5 -25t43.5 -9.5t44 9.5t36.5 25t25 36.5t9.5 44t-9.5 44t-25 36.5t-36.5 25t-44 9.5t-43.5 -9.5t-36.5 -25t-25 -36.5t-9 -44zM-1290 2224q0 66 25 124t68.5 101.5t101.5 69t124 25.5q64 0 122.5 -25.5t102 -69t69.5 -101.5t26 -124
t-26 -124t-69.5 -101.5t-102 -68.5t-122.5 -25q-66 0 -124 25t-101.5 68.5t-68.5 101.5t-25 124z" />
    <glyph glyph-name="maitaikhuleftthai" unicode="&#xf712;" 
d="M-1438 2318q0 -12 3.5 -30.5t13.5 -36.5t28.5 -30.5t49.5 -12.5q49 0 73 40t21 111h217q-3 -71 20 -111t70 -40q28 0 44.5 11t25 31t10 47.5t-1.5 61.5h237q11 -107 -7 -183t-56.5 -124.5t-94.5 -71t-120 -22.5q-42 0 -78 11.5t-65.5 30.5t-50.5 44t-31 53
q-17 -28 -44 -53t-60.5 -44t-71.5 -30.5t-78 -11.5q-95 0 -159 34t-102.5 86.5t-54.5 116t-16 123.5q0 102 34 174.5t92 119.5t134.5 69t161.5 22h766v-237h-742q-57 0 -90 -15t-50.5 -37.5t-22.5 -48t-5 -47.5z" />
    <glyph glyph-name="maiekupperleftthai" unicode="&#xf713;" 
d="M-967 3117h312v-491h-312v491z" />
    <glyph glyph-name="maithoupperleftthai" unicode="&#xf714;" 
d="M-1266 2621v250h-155v250h422v-250q81 1 145 21.5t108.5 54.5t67.5 78.5t23 95.5h290q0 -97 -41 -187t-124 -159.5t-208 -111.5t-294 -42h-234z" />
    <glyph glyph-name="maitriupperleftthai" unicode="&#xf715;" 
d="M-786 2621q0 19 -2 50t-8 61t-16.5 52t-27.5 22t-27.5 -19t-16 -47t-7.5 -60.5t-2 -58.5h-217q0 26 -2 58.5t-7 60.5t-15 47t-25 19q-17 0 -27.5 -22t-16 -52t-7.5 -61t-2 -50h-250q-8 111 12 192.5t58.5 135.5t90.5 80.5t109 26.5q59 0 106.5 -28t81.5 -75
q31 47 84.5 75t112.5 28q38 0 73.5 -11t65 -33.5t52 -56.5t34.5 -80q17 19 31 45.5t24.5 58t16.5 66t6 68.5h266q0 -50 -12.5 -103.5t-34.5 -105t-53 -99t-68 -85.5t-79.5 -64t-87.5 -35h-213z" />
    <glyph glyph-name="maichattawaupperleftthai" unicode="&#xf716;" 
d="M-664 2830v-209h-303v209h-237v242h237v205h303v-205h238v-242h-238z" />
    <glyph glyph-name="thanthakhatupperleftthai" unicode="&#xf717;" 
d="M-352 2671q-151 0 -231.5 -58t-80.5 -184h-303q0 115 42.5 206t122 155t193.5 98.5t257 36.5v-254z" />
    <glyph glyph-name="saraulowthai" unicode="&#xf718;" 
d="M-471 -1311v369h-147v258h462v-627h-315z" />
    <glyph glyph-name="sarauulowthai" unicode="&#xf719;" 
d="M-1221 -684h467v-229q0 -81 34 -122.5t106 -41.5q68 0 103.5 41.5t35.5 122.5v229h315v-229q0 -88 -24 -165.5t-77.5 -135.5t-140 -91.5t-212.5 -33.5q-119 0 -203.5 28.5t-140 80.5t-83.5 125.5t-32 162.5h-148v258z" />
    <glyph glyph-name="phinthulowthai" unicode="&#xf71a;" 
d="M-573 -877q0 48 18 89.5t49 73t72.5 49.5t89.5 18q46 0 87 -18t71.5 -49.5t48.5 -73t18 -89.5q0 -46 -18 -87t-48.5 -71.5t-71.5 -48.5t-87 -18q-48 0 -89.5 18t-72.5 48.5t-49 71.5t-18 87z" />
    <glyph glyph-name="lochula.short" unicode="&#xf71d;" horiz-adv-x="2224" 
d="M1749 0h-373l-299 963l-291 -963h-372l-373 1679h377l205 -1233l286 971h348l299 -975q17 85 32 164t29.5 156.5t29.5 155.5t32 159q13 62 17 104.5t4 80.5q0 43 -10 76.5t-34 56.5t-63.5 35t-97.5 12v237q80 3 144.5 19.5t112 48t76 81t36.5 118.5h385
q-11 -89 -39.5 -157.5t-70.5 -118t-95 -81.5t-111 -49q43 -38 68.5 -86.5t35 -103t5.5 -113.5t-19 -119z" />
    <glyph glyph-name="rulakkhangyao" unicode="&#xf881;" horiz-adv-x="2601" 
d="M520 274h180v-274h-516v909q0 34 -5.5 69t-21 68.5t-42.5 63.5t-70 53q15 68 43.5 135t73 128.5t106 114.5t142.5 92t182.5 61t226.5 22q203 0 342 -49t228 -135q86 90 203 135t247 45t241 -35.5t192 -108t127 -183t46 -259.5v-1671h-336v1614q0 181 -69 264.5t-201 83.5
q-55 0 -101.5 -17t-81.5 -50t-57.5 -82t-29.5 -113q12 -68 12 -143v-1557h-336v1585q0 22 -1 44.5t-7 50.5q-12 57 -40.5 109.5t-78 93t-123 65.5t-176.5 27q-104 1 -179 -23t-125 -60t-77.5 -77.5t-36.5 -73.5q31 -21 53.5 -52t37 -68.5t21.5 -81t7 -89.5v-631z" />
    <glyph glyph-name="lulakkhangyao" unicode="&#xf882;" horiz-adv-x="2707" 
d="M1343 1040q0 71 -22 140t-73 124t-135 89.5t-208 36.5q-103 1 -180 -22.5t-130.5 -59.5t-84 -77t-39.5 -75q53 -46 86 -123.5t33 -167.5v-905h-500v274h164v635q0 34 -5.5 69t-21 68.5t-42.5 63.5t-70 53q15 68 45 135t76 128.5t109.5 114.5t146.5 92t185.5 61t227.5 22
q103 0 189.5 -13.5t158.5 -38t130 -59t104 -77.5q87 93 206 138.5t253 45.5q130 0 241 -35.5t192 -108t127 -183t46 -259.5v-1671h-336v1614q0 181 -69 264.5t-201 83.5q-118 0 -189.5 -70t-81.5 -212q3 -31 5.5 -61.5t2.5 -61.5v-1557h-340v1585z" />
    <glyph glyph-name="yamakkanleftthai" 
d="M-569 2396q-69 0 -112 -10.5t-66 -31.5t-31 -51.5t-8 -70.5v-69h-82q-54 0 -88.5 -15.5t-54 -45t-26.5 -71.5t-7 -94h-304q0 80 17.5 152.5t54.5 131.5t94.5 102.5t137.5 64.5q13 58 47.5 107t92.5 84.5t141 55t194 19.5v-258z" />
    <glyph glyph-name="saraamleft" horiz-adv-x="1430" 
d="M45 1126q0 95 24 175.5t67 145.5t102 114.5t128 83t146 50.5t156 17q130 0 241 -35.5t192 -108t127 -183t46 -259.5v-1126h-336v1069q0 181 -69 264.5t-201 83.5q-117 0 -189 -73t-82 -218h-352zM-1085 2224q0 -23 9 -44t25 -36.5t36.5 -25t43.5 -9.5t44 9.5t36.5 25
t25 36.5t9.5 44t-9.5 44t-25 36.5t-36.5 25t-44 9.5t-43.5 -9.5t-36.5 -25t-25 -36.5t-9 -44zM-1290 2224q0 66 25 124t68.5 101.5t101.5 69t124 25.5q64 0 122.5 -25.5t102 -69t69.5 -101.5t26 -124t-26 -124t-69.5 -101.5t-102 -68.5t-122.5 -25q-66 0 -124 25
t-101.5 68.5t-68.5 101.5t-25 124z" />
    <glyph glyph-name="uni0E33.alt1" horiz-adv-x="1430" 
d="M45 1126q0 95 24 175.5t67 145.5t102 114.5t128 83t146 50.5t156 17q130 0 241 -35.5t192 -108t127 -183t46 -259.5v-1126h-336v1069q0 181 -69 264.5t-201 83.5q-117 0 -189 -73t-82 -218h-352zM-1085 2224q0 -23 9 -44t25 -36.5t36.5 -25t43.5 -9.5t44 9.5t36.5 25
t25 36.5t9.5 44t-9.5 44t-25 36.5t-36.5 25t-44 9.5t-43.5 -9.5t-36.5 -25t-25 -36.5t-9 -44zM-1290 2224q0 66 25 124t68.5 101.5t101.5 69t124 25.5q64 0 122.5 -25.5t102 -69t69.5 -101.5t26 -124t-26 -124t-69.5 -101.5t-102 -68.5t-122.5 -25q-66 0 -124 25
t-101.5 68.5t-68.5 101.5t-25 124z" />
    <glyph glyph-name="saraithai.alt1" 
d="M-1380 1933l135 267h1089v-267h-1224z" />
    <glyph glyph-name="saraiithai.alt1" 
d="M-1245 2200h770v237h319v-504h-1224z" />
    <glyph glyph-name="sarauethai.alt1" 
d="M-709 2228q0 61 23 115t63 94t93.5 63t115.5 23q61 0 115 -23t94 -63t63 -94t23 -115q0 -62 -23 -115.5t-63 -93.5t-94 -63t-115 -23h-966l135 267h536v28zM-520 2228q0 -21 8.5 -40t23 -32.5t34 -21.5t40.5 -8q22 0 41.5 8t34 21.5t23 32.5t8.5 40q0 23 -8.5 42.5
t-23 34t-34 22.5t-41.5 8q-21 0 -40.5 -8t-34 -22.5t-23 -34t-8.5 -42.5z" />
    <glyph glyph-name="saraueethai.alt1" 
d="M-1245 2200h332v237h303v-237h151v237h303v-504h-1224z" />
    <glyph glyph-name="saraithai.alt2" 
d="M-2167 1933l131 267h1450v-267h-1581z" />
    <glyph glyph-name="saraiithai.alt2" 
d="M-2036 2200h1131v237h319v-504h-1581z" />
    <glyph glyph-name="sarauethai.alt2" 
d="M-1135 2228q0 61 23 115t63 94t93.5 63t115.5 23q61 0 114.5 -23t92.5 -63t61.5 -94t22.5 -115q0 -62 -22.5 -115.5t-61.5 -93.5t-92.5 -63t-114.5 -23h-1327l135 267h897v28zM-946 2228q0 -43 30 -72.5t76 -29.5q44 0 73.5 29.5t29.5 72.5q0 47 -29.5 77t-73.5 30
q-46 0 -76 -30t-30 -77z" />
    <glyph glyph-name="saraueethai.alt2" 
d="M-2032 2200h689v237h303v-237h151v237h303v-504h-1581z" />
    <glyph glyph-name="maiekthai.alt2" 
d="M-897 3117h311v-491h-311v491z" />
    <glyph glyph-name="maithothai.alt2" 
d="M-1225 2621v250h-155v250h422v-250q81 1 145 21.5t108.5 54.5t67.5 78.5t23 95.5h290q0 -97 -41 -187t-124 -159.5t-208 -111.5t-294 -42h-234z" />
    <glyph glyph-name="maitrithai.alt2" 
d="M-705 2621q0 19 -2 50t-7.5 61t-16 52t-27.5 22t-27.5 -19t-16 -47t-7.5 -60.5t-2 -58.5h-217q0 26 -2 58.5t-7 60.5t-15 47t-25 19q-17 0 -27.5 -22t-16 -52t-7.5 -61t-2 -50h-250q-8 111 12 192.5t58 135.5t90.5 80.5t109.5 26.5q59 0 106.5 -28t81.5 -75
q31 47 84.5 75t112.5 28q38 0 73.5 -11t65 -33.5t52 -56.5t34.5 -80q17 19 31 45.5t24.5 58t16.5 66t6 68.5h266q0 -50 -12.5 -103.5t-34.5 -105t-53 -99t-68.5 -85.5t-80 -64t-87.5 -35h-213z" />
    <glyph glyph-name="maichattawathai.alt2" 
d="M-590 2830v-209h-303v209h-237v242h237v205h303v-205h238v-242h-238z" />
    <glyph glyph-name="saraithai.alt3" 
d="M-2068 1933l135 267h1777v-267h-1912z" />
    <glyph glyph-name="saraiithai.alt3" 
d="M-1933 2200h1458v237h319v-504h-1912z" />
    <glyph glyph-name="sarauethai.alt3" 
d="M-520 2228q0 -21 8.5 -40t23 -32.5t34 -21.5t40.5 -8q22 0 41.5 8t34 21.5t23 32.5t8.5 40q0 23 -8.5 42.5t-23 34t-34 22.5t-41.5 8q-21 0 -40.5 -8t-34 -22.5t-23 -34t-8.5 -42.5zM-709 2228q0 61 23 115t63 94t93.5 63t115.5 23q61 0 115 -23t94 -63t63 -94t23 -115
q0 -62 -23 -115.5t-63 -93.5t-94 -63t-115 -23h-1654l135 267h1224v28z" />
    <glyph glyph-name="saraueethai.alt3" 
d="M-1933 2200h1020v237h303v-237h151v237h303v-504h-1912z" />
    <glyph glyph-name="maiekthai.alt4" 
d="M-471 2912h311v-491h-311v491z" />
    <glyph glyph-name="maithothai.alt4" 
d="M-778 2417v249h-156v250h422v-250q81 2 145 22t108.5 54t67.5 78.5t23 95.5h291q0 -97 -41 -187t-124 -159.5t-208.5 -111t-294.5 -41.5h-233z" />
    <glyph glyph-name="maitrithai.alt4" 
d="M-438 2417q0 18 -2 49t-8 61t-16.5 52t-27.5 22t-27.5 -19t-16 -47t-7.5 -60t-2 -58h-217q0 26 -2 58t-7 60t-15 47t-25 19q-17 0 -27.5 -22t-16 -52t-7.5 -61t-2 -49h-250q-8 111 12 192.5t58.5 135t90.5 80t109 26.5q59 0 107 -28t82 -75q31 47 84 75t112 28
q39 0 74.5 -11t65 -33.5t52 -56t34.5 -79.5q17 18 31 45t24.5 58.5t16 65.5t5.5 68h267q0 -50 -12.5 -103.5t-34.5 -105t-53.5 -98.5t-68.5 -85t-79.5 -64t-87.5 -35h-213z" />
    <glyph glyph-name="maichattawathai.alt4" 
d="M-164 2626v-209h-303v209h-238v241h238v205h303v-205h238v-241h-238z" />
    <glyph glyph-name="maiekthai.alt5" 
d="M-1008 2953h312v-491h-312v491z" />
    <glyph glyph-name="maithothai.alt5" 
d="M-1307 2458v249h-155v250h422v-250q81 2 145 22t108.5 54t67.5 78.5t23 95.5h290q0 -97 -41 -187t-124 -159.5t-208 -111t-294 -41.5h-234z" />
    <glyph glyph-name="maitrithai.alt5" 
d="M-868 2458q0 18 -2 49t-8 61t-16.5 52t-27.5 22t-27.5 -19t-16 -47t-7.5 -60t-2 -58h-217q0 26 -2 58t-7 60t-15 47t-25 19q-17 0 -27.5 -22t-16 -52t-7.5 -61t-2 -49h-250q-8 111 12 192.5t58.5 135t90.5 80t109 26.5q59 0 107 -28t82 -75q31 47 84 75t112 28
q39 0 74.5 -11t65 -33.5t51.5 -56t34 -79.5q17 18 31.5 45t25 58.5t16 65.5t5.5 68h267q0 -50 -12.5 -103.5t-34.5 -105t-53.5 -99t-68.5 -85t-79.5 -63.5t-87.5 -35h-213z" />
    <glyph glyph-name="maichattawathai.alt5" 
d="M-705 2666v-208h-303v208h-237v242h237v205h303v-205h238v-242h-238z" />
    <glyph glyph-name="sarauthai.alt6" 
d="M-807 -819v368h-147v258h462v-626h-315z" />
    <glyph glyph-name="sarauuthai.alt6" 
d="M-1331 -193h467v-229q0 -80 34 -122t105 -42q68 0 103.5 42t35.5 122v229h316v-229q0 -87 -24 -164.5t-77.5 -135.5t-140.5 -92t-213 -34q-118 0 -202.5 28.5t-140 81t-83.5 125.5t-33 162h-147v258z" />
    <glyph glyph-name="phinthuthai.alt6" 
d="M-946 -369q0 48 18 89.5t49 73t72.5 49.5t89.5 18q46 0 87 -18t71.5 -49.5t48.5 -73t18 -89.5q0 -46 -18 -87t-48.5 -71.5t-71.5 -48.5t-87 -18q-48 0 -89.5 18t-72.5 48.5t-49 71.5t-18 87z" />
    <glyph glyph-name="sarauthai.alt7" 
d="M-766 -819v368h-147v258h462v-626h-315z" />
    <glyph glyph-name="sarauuthai.alt7" 
d="M-1536 -193h467v-229q0 -80 34 -122t105 -42q68 0 103.5 42t35.5 122v229h316v-229q0 -87 -24 -164.5t-77.5 -135.5t-140.5 -92t-213 -34q-118 0 -202.5 28.5t-140 81t-83.5 125.5t-33 162h-147v258z" />
    <glyph glyph-name="phinthuthai.alt7" 
d="M-881 -369q0 48 18 89.5t49.5 73t73 49.5t89.5 18q46 0 87 -18t71.5 -49.5t48.5 -73t18 -89.5q0 -46 -18 -87t-48.5 -71.5t-71.5 -48.5t-87 -18q-48 0 -89.5 18t-73 48.5t-49.5 71.5t-18 87z" />
    <glyph glyph-name="maihanakatthai.alt8" 
d="M-1274 1937v402h311v-144h1291v-258h-1602z" />
    <glyph glyph-name="maiekthai.alt8" 
d="M-983 3117h311v-491h-311v491z" />
    <glyph glyph-name="maithothai.alt8" 
d="M-1253 2621v250h-156v250h422v-250q81 1 145 21.5t108.5 54.5t67.5 78.5t23 95.5h291q0 -97 -41 -187t-124 -159.5t-208.5 -111.5t-294.5 -42h-233z" />
    <glyph glyph-name="maitrithai.alt8" 
d="M-659 2621q0 19 -2 50t-8 61t-16.5 52t-27.5 22t-27.5 -19t-16 -47t-7.5 -60.5t-2 -58.5h-217q0 26 -2 58.5t-7 60.5t-15 47t-25 19q-17 0 -27.5 -22t-16 -52t-7.5 -61t-2 -50h-250q-8 111 12 192.5t58 135.5t90.5 80.5t109.5 26.5q59 0 106.5 -28t81.5 -75
q31 47 84.5 75t112.5 28q38 0 73.5 -11t65 -33.5t52 -56.5t34.5 -80q17 19 31 45.5t24.5 58t16.5 66t6 68.5h266q0 -50 -12.5 -103.5t-34.5 -105t-53 -99t-68 -85.5t-79.5 -64t-87.5 -35h-213z" />
    <glyph glyph-name="maichattawathai.alt8" 
d="M-676 2830v-209h-303v209h-238v242h238v205h303v-205h238v-242h-238z" />
    </font>
</defs>
</svg>
